<svg width="40" height="41" viewBox="0 0 40 41" fill="none" xmlns="http://www.w3.org/2000/svg">
<path d="M26.25 24.617C26.25 24.9485 26.1183 25.2664 25.8839 25.5008C25.6495 25.7353 25.3315 25.867 25 25.867H15C14.6685 25.867 14.3505 25.7353 14.1161 25.5008C13.8817 25.2664 13.75 24.9485 13.75 24.617C13.75 24.2854 13.8817 23.9675 14.1161 23.7331C14.3505 23.4987 14.6685 23.367 15 23.367H25C25.3315 23.367 25.6495 23.4987 25.8839 23.7331C26.1183 23.9675 26.25 24.2854 26.25 24.617ZM25 18.367H15C14.6685 18.367 14.3505 18.4987 14.1161 18.7331C13.8817 18.9675 13.75 19.2854 13.75 19.617C13.75 19.9485 13.8817 20.2664 14.1161 20.5008C14.3505 20.7353 14.6685 20.867 15 20.867H25C25.3315 20.867 25.6495 20.7353 25.8839 20.5008C26.1183 20.2664 26.25 19.9485 26.25 19.617C26.25 19.2854 26.1183 18.9675 25.8839 18.7331C25.6495 18.4987 25.3315 18.367 25 18.367ZM33.75 8.36696V34.617C33.75 35.28 33.4866 35.9159 33.0178 36.3847C32.5489 36.8536 31.913 37.117 31.25 37.117H8.75C8.08696 37.117 7.45107 36.8536 6.98223 36.3847C6.51339 35.9159 6.25 35.28 6.25 34.617V8.36696C6.25 7.70392 6.51339 7.06804 6.98223 6.59919C7.45107 6.13035 8.08696 5.86696 8.75 5.86696H14.4156C15.118 5.08059 15.9785 4.45143 16.9408 4.02065C17.9032 3.58987 18.9456 3.36719 20 3.36719C21.0544 3.36719 22.0968 3.58987 23.0592 4.02065C24.0215 4.45143 24.882 5.08059 25.5844 5.86696H31.25C31.913 5.86696 32.5489 6.13035 33.0178 6.59919C33.4866 7.06804 33.75 7.70392 33.75 8.36696ZM15 10.867H25C25 9.54088 24.4732 8.26911 23.5355 7.33143C22.5979 6.39375 21.3261 5.86696 20 5.86696C18.6739 5.86696 17.4021 6.39375 16.4645 7.33143C15.5268 8.26911 15 9.54088 15 10.867ZM31.25 8.36696H27.0703C27.3547 9.1698 27.5 10.0153 27.5 10.867V12.117C27.5 12.4485 27.3683 12.7664 27.1339 13.0008C26.8995 13.2353 26.5815 13.367 26.25 13.367H13.75C13.4185 13.367 13.1005 13.2353 12.8661 13.0008C12.6317 12.7664 12.5 12.4485 12.5 12.117V10.867C12.5 10.0153 12.6453 9.1698 12.9297 8.36696H8.75V34.617H31.25V8.36696Z" fill="#1570EF"/>
</svg>
