<svg width="40" height="41" viewBox="0 0 40 41" fill="none" xmlns="http://www.w3.org/2000/svg">
<path d="M35.8844 9.9838L30.8844 4.9838C30.7683 4.86758 30.6304 4.77538 30.4787 4.71247C30.3269 4.64957 30.1643 4.61719 30 4.61719C29.8357 4.61719 29.6731 4.64957 29.5213 4.71247C29.3696 4.77538 29.2317 4.86758 29.1156 4.9838L14.1156 19.9838C13.9996 20.1 13.9076 20.2379 13.8448 20.3896C13.7821 20.5414 13.7499 20.704 13.75 20.8682V25.8682C13.75 26.1997 13.8817 26.5176 14.1161 26.7521C14.3505 26.9865 14.6685 27.1182 15 27.1182H20C20.1642 27.1183 20.3268 27.0861 20.4786 27.0233C20.6303 26.9606 20.7682 26.8686 20.8844 26.7525L35.8844 11.7525C36.0006 11.6365 36.0928 11.4986 36.1557 11.3468C36.2186 11.1951 36.251 11.0324 36.251 10.8682C36.251 10.7039 36.2186 10.5412 36.1557 10.3895C36.0928 10.2377 36.0006 10.0999 35.8844 9.9838ZM19.4828 24.6182H16.25V21.3854L26.25 11.3854L29.4828 14.6182L19.4828 24.6182ZM31.25 12.851L28.0172 9.61817L30 7.63536L33.2328 10.8682L31.25 12.851ZM35 20.8682V33.3682C35 34.0312 34.7366 34.6671 34.2678 35.1359C33.7989 35.6048 33.163 35.8682 32.5 35.8682H7.5C6.83696 35.8682 6.20107 35.6048 5.73223 35.1359C5.26339 34.6671 5 34.0312 5 33.3682V8.36817C5 7.70513 5.26339 7.06924 5.73223 6.6004C6.20107 6.13156 6.83696 5.86817 7.5 5.86817H20C20.3315 5.86817 20.6495 5.99987 20.8839 6.23429C21.1183 6.46871 21.25 6.78665 21.25 7.11817C21.25 7.44969 21.1183 7.76763 20.8839 8.00205C20.6495 8.23647 20.3315 8.36817 20 8.36817H7.5V33.3682H32.5V20.8682C32.5 20.5367 32.6317 20.2187 32.8661 19.9843C33.1005 19.7499 33.4185 19.6182 33.75 19.6182C34.0815 19.6182 34.3995 19.7499 34.6339 19.9843C34.8683 20.2187 35 20.5367 35 20.8682Z" fill="#1570EF"/>
</svg>
