<svg width="41" height="40" viewBox="0 0 41 40" fill="none" xmlns="http://www.w3.org/2000/svg">
<path opacity="0.2" d="M27.0625 20C27.0625 21.2361 26.6959 22.4445 26.0092 23.4723C25.3224 24.5001 24.3463 25.3012 23.2043 25.7742C22.0622 26.2473 20.8056 26.3711 19.5932 26.1299C18.3808 25.8888 17.2672 25.2935 16.3931 24.4194C15.519 23.5453 14.9238 22.4317 14.6826 21.2193C14.4414 20.0069 14.5652 18.7503 15.0383 17.6082C15.5113 16.4662 16.3124 15.4901 17.3402 14.8033C18.368 14.1166 19.5764 13.75 20.8125 13.75C22.4701 13.75 24.0598 14.4085 25.2319 15.5806C26.404 16.7527 27.0625 18.3424 27.0625 20Z" fill="#1570EF"/>
<path d="M20.8125 3.75C17.5986 3.75 14.4568 4.70305 11.7845 6.48862C9.11219 8.27419 7.02939 10.8121 5.79946 13.7814C4.56954 16.7507 4.24774 20.018 4.87475 23.1702C5.50176 26.3224 7.04942 29.2179 9.32202 31.4905C11.5946 33.7631 14.4901 35.3107 17.6423 35.9378C20.7945 36.5648 24.0618 36.243 27.0311 35.013C30.0004 33.7831 32.5383 31.7003 34.3239 29.028C36.1095 26.3557 37.0625 23.2139 37.0625 20C37.058 15.6916 35.3444 11.561 32.298 8.51454C29.2515 5.46806 25.1209 3.75455 20.8125 3.75ZM20.8125 6.25C23.1009 6.25095 25.353 6.82304 27.3644 7.91443C29.3758 9.00581 31.083 10.582 32.3313 12.5H20.8125C19.2337 12.5018 17.6956 13.0009 16.4166 13.9265C15.1376 14.8521 14.1827 16.1571 13.6875 17.6562L10.0813 11.4062C11.3684 9.79661 13.0014 8.49732 14.8591 7.60473C16.7167 6.71213 18.7515 6.24911 20.8125 6.25ZM25.8125 20C25.8125 20.9889 25.5193 21.9556 24.9699 22.7778C24.4204 23.6001 23.6396 24.241 22.7259 24.6194C21.8123 24.9978 20.807 25.0969 19.8371 24.9039C18.8671 24.711 17.9762 24.2348 17.277 23.5355C16.5777 22.8363 16.1015 21.9454 15.9086 20.9755C15.7157 20.0055 15.8147 19.0002 16.1931 18.0866C16.5715 17.173 17.2124 16.3921 18.0347 15.8427C18.8569 15.2932 19.8236 15 20.8125 15C22.1386 15 23.4104 15.5268 24.348 16.4645C25.2857 17.4021 25.8125 18.6739 25.8125 20ZM18.7375 33.5937C16.5874 33.2653 14.5459 32.4314 12.7807 31.1606C11.0155 29.8899 9.57693 28.2185 8.58317 26.2837C7.58941 24.349 7.06881 22.2061 7.06413 20.031C7.05945 17.856 7.57083 15.7109 8.55626 13.7719L14.3172 23.75C14.3266 23.7656 14.3375 23.7797 14.3469 23.7937C15.1409 25.1485 16.3401 26.2198 17.7753 26.8567C19.2106 27.4936 20.8096 27.664 22.3469 27.3437L18.7375 33.5937ZM21.55 33.7297L27.3078 23.75C27.3203 23.7281 27.3297 23.7062 27.3422 23.6844C28.1153 22.3211 28.4407 20.7494 28.2725 19.1912C28.1042 17.633 27.4509 16.1669 26.4047 15H33.625C34.4159 17.0264 34.7147 19.2116 34.4969 21.376C34.2791 23.5403 33.5509 25.6221 32.3721 27.4504C31.1933 29.2786 29.5975 30.801 27.716 31.8926C25.8344 32.9842 23.7207 33.6138 21.5484 33.7297H21.55Z" fill="#1570EF"/>
</svg>
