<svg width="40" height="41" viewBox="0 0 40 41" fill="none" xmlns="http://www.w3.org/2000/svg">
<path d="M16.25 24.3828C16.25 24.7143 16.1183 25.0323 15.8839 25.2667C15.6495 25.5011 15.3315 25.6328 15 25.6328H8.75C8.41848 25.6328 8.10054 25.5011 7.86612 25.2667C7.6317 25.0323 7.5 24.7143 7.5 24.3828C7.5 24.0513 7.6317 23.7333 7.86612 23.4989C8.10054 23.2645 8.41848 23.1328 8.75 23.1328H15C15.3315 23.1328 15.6495 23.2645 15.8839 23.4989C16.1183 23.7333 16.25 24.0513 16.25 24.3828ZM37.5 18.7578V28.1328C37.5 28.7959 37.2366 29.4317 36.7678 29.9006C36.2989 30.3694 35.663 30.6328 35 30.6328H21.25V35.6328C21.25 35.9643 21.1183 36.2823 20.8839 36.5167C20.6495 36.7511 20.3315 36.8828 20 36.8828C19.6685 36.8828 19.3505 36.7511 19.1161 36.5167C18.8817 36.2823 18.75 35.9643 18.75 35.6328V30.6328H5C4.33696 30.6328 3.70107 30.3694 3.23223 29.9006C2.76339 29.4317 2.5 28.7959 2.5 28.1328V18.7578C2.50289 16.2723 3.49154 13.8894 5.24907 12.1319C7.0066 10.3744 9.38948 9.38571 11.875 9.38281H23.75V4.38281C23.75 4.05129 23.8817 3.73335 24.1161 3.49893C24.3505 3.26451 24.6685 3.13281 25 3.13281H30C30.3315 3.13281 30.6495 3.26451 30.8839 3.49893C31.1183 3.73335 31.25 4.05129 31.25 4.38281C31.25 4.71433 31.1183 5.03228 30.8839 5.2667C30.6495 5.50112 30.3315 5.63281 30 5.63281H26.25V9.38281H28.125C30.6105 9.38571 32.9934 10.3744 34.7509 12.1319C36.5085 13.8894 37.4971 16.2723 37.5 18.7578ZM18.75 28.1328V18.7578C18.75 16.9344 18.0257 15.1858 16.7364 13.8965C15.447 12.6071 13.6984 11.8828 11.875 11.8828C10.0516 11.8828 8.30295 12.6071 7.01364 13.8965C5.72433 15.1858 5 16.9344 5 18.7578V28.1328H18.75ZM35 18.7578C34.9979 16.9351 34.2729 15.1876 32.9841 13.8987C31.6952 12.6099 29.9477 11.8849 28.125 11.8828H26.25V23.1328C26.25 23.4643 26.1183 23.7823 25.8839 24.0167C25.6495 24.2511 25.3315 24.3828 25 24.3828C24.6685 24.3828 24.3505 24.2511 24.1161 24.0167C23.8817 23.7823 23.75 23.4643 23.75 23.1328V11.8828H18.2422C19.191 12.759 19.9481 13.8222 20.4658 15.0054C20.9835 16.1887 21.2505 17.4663 21.25 18.7578V28.1328H35V18.7578Z" fill="#1570EF"/>
</svg>
