<svg width="40" height="41" viewBox="0 0 40 41" fill="none" xmlns="http://www.w3.org/2000/svg">
<path d="M28.75 18.3672C28.75 18.6987 28.6183 19.0167 28.3839 19.2511C28.1495 19.4855 27.8315 19.6172 27.5 19.6172H17.5C17.1685 19.6172 16.8505 19.4855 16.6161 19.2511C16.3817 19.0167 16.25 18.6987 16.25 18.3672C16.25 18.0357 16.3817 17.7177 16.6161 17.4833C16.8505 17.2489 17.1685 17.1172 17.5 17.1172H27.5C27.8315 17.1172 28.1495 17.2489 28.3839 17.4833C28.6183 17.7177 28.75 18.0357 28.75 18.3672ZM27.5 22.1172H17.5C17.1685 22.1172 16.8505 22.2489 16.6161 22.4833C16.3817 22.7177 16.25 23.0357 16.25 23.3672C16.25 23.6987 16.3817 24.0167 16.6161 24.2511C16.8505 24.4855 17.1685 24.6172 17.5 24.6172H27.5C27.8315 24.6172 28.1495 24.4855 28.3839 24.2511C28.6183 24.0167 28.75 23.6987 28.75 23.3672C28.75 23.0357 28.6183 22.7177 28.3839 22.4833C28.1495 22.2489 27.8315 22.1172 27.5 22.1172ZM35 8.36719V33.3672C35 34.0302 34.7366 34.6661 34.2678 35.135C33.7989 35.6038 33.163 35.8672 32.5 35.8672H7.5C6.83696 35.8672 6.20107 35.6038 5.73223 35.135C5.26339 34.6661 5 34.0302 5 33.3672V8.36719C5 7.70415 5.26339 7.06826 5.73223 6.59942C6.20107 6.13058 6.83696 5.86719 7.5 5.86719H32.5C33.163 5.86719 33.7989 6.13058 34.2678 6.59942C34.7366 7.06826 35 7.70415 35 8.36719ZM7.5 33.3672H11.25V8.36719H7.5V33.3672ZM32.5 33.3672V8.36719H13.75V33.3672H32.5Z" fill="#1570EF"/>
</svg>
