<svg width="40" height="41" viewBox="0 0 40 41" fill="none" xmlns="http://www.w3.org/2000/svg">
<path d="M36.2511 21.9863C35.9855 25.0737 34.8437 28.0211 32.9599 30.4817C31.0761 32.9422 28.5288 34.8136 25.6176 35.8756C22.7064 36.9376 19.5524 37.1461 16.5268 36.4765C13.5011 35.8068 10.7297 34.287 8.53845 32.0958C6.34722 29.9046 4.8274 27.1331 4.15779 24.1074C3.48818 21.0818 3.69664 17.9278 4.75864 15.0166C5.82064 12.1054 7.692 9.55811 10.1526 7.67434C12.6131 5.79056 15.5605 4.64872 18.648 4.38315C18.8121 4.36961 18.9773 4.38853 19.1342 4.43884C19.291 4.48915 19.4364 4.56985 19.5621 4.67635C19.6877 4.78285 19.7911 4.91305 19.8665 5.05952C19.9418 5.206 19.9875 5.36588 20.0011 5.53003C20.0146 5.69418 19.9957 5.85939 19.9454 6.01623C19.8951 6.17307 19.8144 6.31847 19.7079 6.44412C19.6014 6.56977 19.4712 6.67321 19.3247 6.74854C19.1782 6.82387 19.0184 6.86961 18.8542 6.88315C16.2411 7.10767 13.7464 8.07388 11.6638 9.6681C9.58111 11.2623 7.99712 13.4182 7.09816 15.8821C6.1992 18.346 6.02267 21.0154 6.58935 23.5762C7.15602 26.1371 8.44232 28.4828 10.2969 30.3373C12.1515 32.1919 14.4972 33.4782 17.058 34.0449C19.6188 34.6116 22.2882 34.435 24.7521 33.5361C27.216 32.6371 29.3719 31.0531 30.9661 28.9705C32.5604 26.8878 33.5266 24.3932 33.7511 21.78C33.7784 21.4485 33.9364 21.1414 34.1901 20.9263C34.4439 20.7113 34.7727 20.6058 35.1042 20.6332C35.4357 20.6605 35.7428 20.8184 35.9579 21.0722C36.173 21.3259 36.2784 21.6548 36.2511 21.9863ZM18.7511 11.8832V20.6332C18.7511 20.9647 18.8828 21.2826 19.1172 21.517C19.3516 21.7515 19.6696 21.8832 20.0011 21.8832H28.7511C29.0826 21.8832 29.4006 21.7515 29.635 21.517C29.8694 21.2826 30.0011 20.9647 30.0011 20.6332C30.0011 20.3016 29.8694 19.9837 29.635 19.7493C29.4006 19.5148 29.0826 19.3832 28.7511 19.3832H21.2511V11.8832C21.2511 11.5516 21.1194 11.2337 20.885 10.9993C20.6506 10.7648 20.3326 10.6332 20.0011 10.6332C19.6696 10.6332 19.3516 10.7648 19.1172 10.9993C18.8828 11.2337 18.7511 11.5516 18.7511 11.8832ZM25.0011 8.13315C25.3719 8.13315 25.7344 8.02319 26.0428 7.81716C26.3511 7.61113 26.5914 7.3183 26.7334 6.97568C26.8753 6.63307 26.9124 6.25607 26.8401 5.89236C26.7677 5.52864 26.5891 5.19455 26.3269 4.93233C26.0647 4.6701 25.7306 4.49153 25.3669 4.41918C25.0032 4.34683 24.6262 4.38396 24.2836 4.52588C23.9409 4.66779 23.6481 4.90812 23.4421 5.21646C23.2361 5.5248 23.1261 5.88731 23.1261 6.25815C23.1261 6.75543 23.3236 7.23235 23.6753 7.58398C24.0269 7.93561 24.5038 8.13315 25.0011 8.13315ZM30.6261 11.8832C30.9969 11.8832 31.3594 11.7732 31.6678 11.5672C31.9761 11.3611 32.2164 11.0683 32.3584 10.7257C32.5003 10.3831 32.5374 10.0061 32.4651 9.64236C32.3927 9.27864 32.2141 8.94455 31.9519 8.68233C31.6897 8.4201 31.3556 8.24153 30.9919 8.16918C30.6282 8.09683 30.2512 8.13396 29.9086 8.27588C29.5659 8.41779 29.2731 8.65812 29.0671 8.96646C28.8611 9.2748 28.7511 9.63731 28.7511 10.0082C28.7511 10.5054 28.9486 10.9823 29.3003 11.334C29.6519 11.6856 30.1288 11.8832 30.6261 11.8832ZM34.3761 17.5082C34.7469 17.5082 35.1094 17.3982 35.4178 17.1922C35.7261 16.9861 35.9664 16.6933 36.1084 16.3507C36.2503 16.0081 36.2874 15.6311 36.2151 15.2674C36.1427 14.9036 35.9641 14.5696 35.7019 14.3073C35.4397 14.0451 35.1056 13.8665 34.7419 13.7942C34.3782 13.7218 34.0012 13.759 33.6586 13.9009C33.3159 14.0428 33.0231 14.2831 32.8171 14.5915C32.6111 14.8998 32.5011 15.2623 32.5011 15.6332C32.5011 16.1304 32.6986 16.6073 33.0503 16.959C33.4019 17.3106 33.8788 17.5082 34.3761 17.5082Z" fill="#1570EF"/>
</svg>
