<svg width="40" height="41" viewBox="0 0 40 41" fill="none" xmlns="http://www.w3.org/2000/svg">
<path d="M33.75 4.61719H6.25C5.58696 4.61719 4.95107 4.88058 4.48223 5.34942C4.01339 5.81826 3.75 6.45415 3.75 7.11719V34.6172C3.75 35.2802 4.01339 35.9161 4.48223 36.385C4.95107 36.8538 5.58696 37.1172 6.25 37.1172H33.75C34.413 37.1172 35.0489 36.8538 35.5178 36.385C35.9866 35.9161 36.25 35.2802 36.25 34.6172V7.11719C36.25 6.45415 35.9866 5.81826 35.5178 5.34942C35.0489 4.88058 34.413 4.61719 33.75 4.61719ZM33.75 34.6172H6.25V7.11719H33.75V34.6172ZM15 18.3672V28.3672C15 28.6987 14.8683 29.0167 14.6339 29.2511C14.3995 29.4855 14.0815 29.6172 13.75 29.6172C13.4185 29.6172 13.1005 29.4855 12.8661 29.2511C12.6317 29.0167 12.5 28.6987 12.5 28.3672V18.3672C12.5 18.0357 12.6317 17.7177 12.8661 17.4833C13.1005 17.2489 13.4185 17.1172 13.75 17.1172C14.0815 17.1172 14.3995 17.2489 14.6339 17.4833C14.8683 17.7177 15 18.0357 15 18.3672ZM28.75 22.7422V28.3672C28.75 28.6987 28.6183 29.0167 28.3839 29.2511C28.1495 29.4855 27.8315 29.6172 27.5 29.6172C27.1685 29.6172 26.8505 29.4855 26.6161 29.2511C26.3817 29.0167 26.25 28.6987 26.25 28.3672V22.7422C26.25 21.9134 25.9208 21.1185 25.3347 20.5325C24.7487 19.9464 23.9538 19.6172 23.125 19.6172C22.2962 19.6172 21.5013 19.9464 20.9153 20.5325C20.3292 21.1185 20 21.9134 20 22.7422V28.3672C20 28.6987 19.8683 29.0167 19.6339 29.2511C19.3995 29.4855 19.0815 29.6172 18.75 29.6172C18.4185 29.6172 18.1005 29.4855 17.8661 29.2511C17.6317 29.0167 17.5 28.6987 17.5 28.3672V18.3672C17.5016 18.061 17.6154 17.766 17.82 17.5383C18.0246 17.3105 18.3057 17.1657 18.61 17.1314C18.9142 17.0971 19.2205 17.1757 19.4707 17.3522C19.7208 17.5287 19.8975 17.7909 19.9672 18.0891C20.8128 17.5154 21.7987 17.183 22.819 17.1274C23.8393 17.0718 24.8554 17.2952 25.7584 17.7735C26.6613 18.2519 27.4169 18.9672 27.9439 19.8426C28.471 20.718 28.7497 21.7204 28.75 22.7422ZM15.625 13.9922C15.625 14.363 15.515 14.7255 15.309 15.0339C15.103 15.3422 14.8101 15.5825 14.4675 15.7245C14.1249 15.8664 13.7479 15.9035 13.3842 15.8312C13.0205 15.7588 12.6864 15.5802 12.4242 15.318C12.162 15.0558 11.9834 14.7217 11.911 14.358C11.8387 13.9943 11.8758 13.6173 12.0177 13.2747C12.1596 12.932 12.4 12.6392 12.7083 12.4332C13.0166 12.2272 13.3792 12.1172 13.75 12.1172C14.2473 12.1172 14.7242 12.3147 15.0758 12.6664C15.4275 13.018 15.625 13.4949 15.625 13.9922Z" fill="#1570EF"/>
</svg>
