<svg width="40" height="41" viewBox="0 0 40 41" fill="none" xmlns="http://www.w3.org/2000/svg">
<path d="M33.3844 13.4984L24.6344 4.74844C24.5182 4.63239 24.3803 4.54038 24.2286 4.47764C24.0768 4.41491 23.9142 4.38268 23.75 4.38281H8.75C8.08696 4.38281 7.45107 4.6462 6.98223 5.11505C6.51339 5.58389 6.25 6.21977 6.25 6.88281V34.3828C6.25 35.0459 6.51339 35.6817 6.98223 36.1506C7.45107 36.6194 8.08696 36.8828 8.75 36.8828H31.25C31.913 36.8828 32.5489 36.6194 33.0178 36.1506C33.4866 35.6817 33.75 35.0459 33.75 34.3828V14.3828C33.7501 14.2186 33.7179 14.056 33.6552 13.9043C33.5924 13.7525 33.5004 13.6146 33.3844 13.4984ZM25 8.65L29.4828 13.1328H25V8.65ZM31.25 34.3828H8.75V6.88281H22.5V14.3828C22.5 14.7143 22.6317 15.0323 22.8661 15.2667C23.1005 15.5011 23.4185 15.6328 23.75 15.6328H31.25V34.3828ZM26.25 21.8828C26.25 22.2143 26.1183 22.5323 25.8839 22.7667C25.6495 23.0011 25.3315 23.1328 25 23.1328H15C14.6685 23.1328 14.3505 23.0011 14.1161 22.7667C13.8817 22.5323 13.75 22.2143 13.75 21.8828C13.75 21.5513 13.8817 21.2333 14.1161 20.9989C14.3505 20.7645 14.6685 20.6328 15 20.6328H25C25.3315 20.6328 25.6495 20.7645 25.8839 20.9989C26.1183 21.2333 26.25 21.5513 26.25 21.8828ZM26.25 26.8828C26.25 27.2143 26.1183 27.5323 25.8839 27.7667C25.6495 28.0011 25.3315 28.1328 25 28.1328H15C14.6685 28.1328 14.3505 28.0011 14.1161 27.7667C13.8817 27.5323 13.75 27.2143 13.75 26.8828C13.75 26.5513 13.8817 26.2333 14.1161 25.9989C14.3505 25.7645 14.6685 25.6328 15 25.6328H25C25.3315 25.6328 25.6495 25.7645 25.8839 25.9989C26.1183 26.2333 26.25 26.5513 26.25 26.8828Z" fill="#1570EF"/>
</svg>
