<svg width="40" height="41" viewBox="0 0 40 41" fill="none" xmlns="http://www.w3.org/2000/svg">
<path d="M33.3844 13.7328L24.6344 4.98281C24.5182 4.86677 24.3803 4.77475 24.2286 4.71202C24.0768 4.64928 23.9142 4.61706 23.75 4.61719H8.75C8.08696 4.61719 7.45107 4.88058 6.98223 5.34942C6.51339 5.81826 6.25 6.45415 6.25 7.11719V34.6172C6.25 35.2802 6.51339 35.9161 6.98223 36.385C7.45107 36.8538 8.08696 37.1172 8.75 37.1172H31.25C31.913 37.1172 32.5489 36.8538 33.0178 36.385C33.4866 35.9161 33.75 35.2802 33.75 34.6172V14.6172C33.7501 14.453 33.7179 14.2904 33.6552 14.1386C33.5924 13.9869 33.5004 13.849 33.3844 13.7328ZM25 8.88438L29.4828 13.3672H25V8.88438ZM31.25 34.6172H8.75V7.11719H22.5V14.6172C22.5 14.9487 22.6317 15.2667 22.8661 15.5011C23.1005 15.7355 23.4185 15.8672 23.75 15.8672H31.25V34.6172ZM24.1344 26.9844C24.8721 25.8121 25.152 24.4092 24.9207 23.0436C24.6895 21.678 23.9631 20.4455 22.8806 19.5815C21.798 18.7176 20.4351 18.2828 19.0522 18.3602C17.6693 18.4376 16.3634 19.0218 15.384 20.0012C14.4046 20.9806 13.8204 22.2865 13.743 23.6694C13.6656 25.0522 14.1004 26.4152 14.9643 27.4977C15.8283 28.5803 17.0608 29.3066 18.4264 29.5379C19.792 29.7692 21.1949 29.4893 22.3672 28.7516L24.1156 30.5016C24.2318 30.6177 24.3696 30.7098 24.5214 30.7727C24.6731 30.8355 24.8358 30.8679 25 30.8679C25.1642 30.8679 25.3269 30.8355 25.4786 30.7727C25.6304 30.7098 25.7682 30.6177 25.8844 30.5016C26.0005 30.3854 26.0926 30.2475 26.1555 30.0958C26.2183 29.9441 26.2507 29.7814 26.2507 29.6172C26.2507 29.4529 26.2183 29.2903 26.1555 29.1386C26.0926 28.9868 26.0005 28.8489 25.8844 28.7328L24.1344 26.9844ZM16.25 23.9922C16.25 23.3741 16.4333 22.7699 16.7767 22.256C17.12 21.7421 17.6081 21.3416 18.1791 21.1051C18.7501 20.8685 19.3785 20.8067 19.9847 20.9272C20.5908 21.0478 21.1477 21.3454 21.5847 21.7825C22.0217 22.2195 22.3194 22.7763 22.44 23.3825C22.5605 23.9887 22.4986 24.6171 22.2621 25.1881C22.0256 25.7591 21.6251 26.2472 21.1112 26.5905C20.5973 26.9339 19.9931 27.1172 19.375 27.1172C18.5462 27.1172 17.7513 26.7879 17.1653 26.2019C16.5792 25.6158 16.25 24.821 16.25 23.9922Z" fill="#1570EF"/>
</svg>
