<svg width="40" height="41" viewBox="0 0 40 41" fill="none" xmlns="http://www.w3.org/2000/svg">
<path d="M33.3844 13.7328L24.6344 4.98281C24.5182 4.86677 24.3803 4.77475 24.2286 4.71202C24.0768 4.64928 23.9142 4.61706 23.75 4.61719H8.75C8.08696 4.61719 7.45107 4.88058 6.98223 5.34942C6.51339 5.81826 6.25 6.45415 6.25 7.11719V34.6172C6.25 35.2802 6.51339 35.9161 6.98223 36.385C7.45107 36.8538 8.08696 37.1172 8.75 37.1172H31.25C31.913 37.1172 32.5489 36.8538 33.0178 36.385C33.4866 35.9161 33.75 35.2802 33.75 34.6172V14.6172C33.7501 14.453 33.7179 14.2904 33.6552 14.1386C33.5924 13.9869 33.5004 13.849 33.3844 13.7328ZM25 8.88438L29.4828 13.3672H25V8.88438ZM31.25 34.6172H17.5V32.1172H18.75C19.0815 32.1172 19.3995 31.9855 19.6339 31.7511C19.8683 31.5167 20 31.1987 20 30.8672C20 30.5357 19.8683 30.2177 19.6339 29.9833C19.3995 29.7489 19.0815 29.6172 18.75 29.6172H17.5V27.1172H18.75C19.0815 27.1172 19.3995 26.9855 19.6339 26.7511C19.8683 26.5167 20 26.1987 20 25.8672C20 25.5357 19.8683 25.2177 19.6339 24.9833C19.3995 24.7489 19.0815 24.6172 18.75 24.6172H17.5V22.1172H18.75C19.0815 22.1172 19.3995 21.9855 19.6339 21.7511C19.8683 21.5167 20 21.1987 20 20.8672C20 20.5357 19.8683 20.2177 19.6339 19.9833C19.3995 19.7489 19.0815 19.6172 18.75 19.6172H17.5V18.3672C17.5 18.0357 17.3683 17.7177 17.1339 17.4833C16.8995 17.2489 16.5815 17.1172 16.25 17.1172C15.9185 17.1172 15.6005 17.2489 15.3661 17.4833C15.1317 17.7177 15 18.0357 15 18.3672V19.6172H13.75C13.4185 19.6172 13.1005 19.7489 12.8661 19.9833C12.6317 20.2177 12.5 20.5357 12.5 20.8672C12.5 21.1987 12.6317 21.5167 12.8661 21.7511C13.1005 21.9855 13.4185 22.1172 13.75 22.1172H15V24.6172H13.75C13.4185 24.6172 13.1005 24.7489 12.8661 24.9833C12.6317 25.2177 12.5 25.5357 12.5 25.8672C12.5 26.1987 12.6317 26.5167 12.8661 26.7511C13.1005 26.9855 13.4185 27.1172 13.75 27.1172H15V29.6172H13.75C13.4185 29.6172 13.1005 29.7489 12.8661 29.9833C12.6317 30.2177 12.5 30.5357 12.5 30.8672C12.5 31.1987 12.6317 31.5167 12.8661 31.7511C13.1005 31.9855 13.4185 32.1172 13.75 32.1172H15V34.6172H8.75V7.11719H22.5V14.6172C22.5 14.9487 22.6317 15.2667 22.8661 15.5011C23.1005 15.7355 23.4185 15.8672 23.75 15.8672H31.25V34.6172Z" fill="#1570EF"/>
</svg>
