<svg width="40" height="41" viewBox="0 0 40 41" fill="none" xmlns="http://www.w3.org/2000/svg">
<path d="M36.25 33.3672C36.25 33.6987 36.1183 34.0167 35.8839 34.2511C35.6495 34.4855 35.3315 34.6172 35 34.6172H5C4.66848 34.6172 4.35054 34.4855 4.11612 34.2511C3.8817 34.0167 3.75 33.6987 3.75 33.3672V8.36719C3.75 8.03567 3.8817 7.71772 4.11612 7.4833C4.35054 7.24888 4.66848 7.11719 5 7.11719C5.33152 7.11719 5.64946 7.24888 5.88388 7.4833C6.1183 7.71772 6.25 8.03567 6.25 8.36719V23.1125L14.1766 16.1797C14.3923 15.9909 14.6663 15.8819 14.9528 15.8711C15.2392 15.8603 15.5207 15.9483 15.75 16.1203L24.9391 23.0125L34.1766 14.9297C34.2977 14.8098 34.442 14.7159 34.6008 14.6539C34.7595 14.5918 34.9292 14.5629 35.0995 14.5688C35.2699 14.5748 35.4372 14.6155 35.5912 14.6884C35.7452 14.7614 35.8827 14.8651 35.9951 14.9931C36.1076 15.1212 36.1927 15.2709 36.2452 15.433C36.2977 15.5952 36.3165 15.7663 36.3004 15.936C36.2843 16.1056 36.2337 16.2702 36.1517 16.4196C36.0697 16.569 35.958 16.7 35.8234 16.8047L25.8234 25.5547C25.6077 25.7435 25.3337 25.8524 25.0472 25.8633C24.7608 25.8741 24.4793 25.7861 24.25 25.6141L15.0609 18.725L6.25 26.4344V32.1172H35C35.3315 32.1172 35.6495 32.2489 35.8839 32.4833C36.1183 32.7177 36.25 33.0357 36.25 33.3672Z" fill="#1570EF"/>
</svg>
