<svg width="40" height="41" viewBox="0 0 40 41" fill="none" xmlns="http://www.w3.org/2000/svg">
<path d="M19.9986 13.3658C18.5152 13.3658 17.0652 13.8057 15.8318 14.6298C14.5985 15.4539 13.6372 16.6252 13.0695 17.9957C12.5019 19.3661 12.3533 20.8741 12.6427 22.329C12.9321 23.7838 13.6464 25.1202 14.6953 26.1691C15.7442 27.218 17.0806 27.9323 18.5354 28.2217C19.9903 28.5111 21.4983 28.3626 22.8687 27.7949C24.2392 27.2272 25.4105 26.2659 26.2346 25.0326C27.0587 23.7992 27.4986 22.3492 27.4986 20.8658C27.4965 18.8773 26.7057 16.9709 25.2996 15.5648C23.8936 14.1587 21.9871 13.3679 19.9986 13.3658ZM19.9986 25.8658C19.0097 25.8658 18.043 25.5726 17.2208 25.0231C16.3985 24.4737 15.7576 23.6928 15.3792 22.7792C15.0008 21.8656 14.9018 20.8602 15.0947 19.8903C15.2876 18.9204 15.7638 18.0295 16.4631 17.3303C17.1623 16.631 18.0533 16.1548 19.0232 15.9619C19.9931 15.7689 20.9984 15.868 21.912 16.2464C22.8257 16.6248 23.6065 17.2657 24.156 18.0879C24.7054 18.9102 24.9986 19.8769 24.9986 20.8658C24.9986 22.1919 24.4718 23.4636 23.5341 24.4013C22.5965 25.339 21.3247 25.8658 19.9986 25.8658ZM33.7486 21.2033C33.7549 20.9783 33.7549 20.7533 33.7486 20.5283L36.0799 17.6158C36.2021 17.4629 36.2867 17.2834 36.3269 17.0918C36.367 16.9002 36.3616 16.7018 36.3111 16.5127C35.9289 15.0761 35.3573 13.6968 34.6111 12.4111C34.5134 12.2429 34.3778 12.0997 34.215 11.9931C34.0523 11.8865 33.8669 11.8194 33.6736 11.797L29.9674 11.3845C29.8132 11.222 29.6569 11.0658 29.4986 10.9158L29.0611 7.20017C29.0386 7.00675 28.9712 6.82126 28.8643 6.6585C28.7575 6.49573 28.614 6.36019 28.4455 6.26267C27.1593 5.5179 25.7801 4.94679 24.3439 4.56423C24.1547 4.51391 23.9562 4.50877 23.7646 4.54921C23.573 4.58965 23.3936 4.67454 23.2408 4.79704L20.3361 7.11579C20.1111 7.11579 19.8861 7.11579 19.6611 7.11579L16.7486 4.78923C16.5957 4.66699 16.4162 4.58238 16.2246 4.54222C16.033 4.50205 15.8346 4.50745 15.6455 4.55798C14.2092 4.94084 12.8299 5.51249 11.5439 6.25798C11.3757 6.35568 11.2325 6.4913 11.1259 6.65406C11.0193 6.81681 10.9522 7.00221 10.9299 7.19548L10.5174 10.908C10.3549 11.0632 10.1986 11.2194 10.0486 11.3767L6.33298 11.8033C6.13956 11.8258 5.95408 11.8932 5.79131 12.0001C5.62854 12.1069 5.493 12.2504 5.39548 12.4189C4.65071 13.7051 4.0796 15.0843 3.69704 16.5205C3.64673 16.7097 3.64158 16.9082 3.68202 17.0998C3.72246 17.2914 3.80735 17.4708 3.92986 17.6236L6.24861 20.5283C6.24861 20.7533 6.24861 20.9783 6.24861 21.2033L3.92204 24.1158C3.79981 24.2687 3.7152 24.4482 3.67503 24.6398C3.63486 24.8314 3.64026 25.0298 3.69079 25.2189C4.07297 26.6555 4.64465 28.0348 5.39079 29.3205C5.48849 29.4887 5.62411 29.6319 5.78687 29.7385C5.94963 29.8451 6.13502 29.9122 6.32829 29.9345L10.0345 30.347C10.1898 30.5095 10.346 30.6658 10.5033 30.8158L10.9361 34.5314C10.9586 34.7248 11.026 34.9103 11.1329 35.0731C11.2398 35.2359 11.3832 35.3714 11.5517 35.4689C12.8379 36.2137 14.2171 36.7848 15.6533 37.1674C15.8426 37.2177 16.041 37.2228 16.2326 37.1824C16.4242 37.1419 16.6036 37.0571 16.7564 36.9345L19.6611 34.6158C19.8861 34.622 20.1111 34.622 20.3361 34.6158L23.2486 36.947C23.4015 37.0693 23.581 37.1539 23.7726 37.1941C23.9642 37.2342 24.1626 37.2288 24.3517 37.1783C25.7883 36.7961 27.1676 36.2244 28.4533 35.4783C28.6215 35.3806 28.7647 35.245 28.8713 35.0822C28.9779 34.9195 29.045 34.7341 29.0674 34.5408L29.4799 30.8345C29.6424 30.6804 29.7986 30.5241 29.9486 30.3658L33.6642 29.9283C33.8577 29.9058 34.0431 29.8384 34.2059 29.7315C34.3687 29.6246 34.5042 29.4812 34.6017 29.3127C35.3465 28.0265 35.9176 26.6473 36.3002 25.2111C36.3505 25.0219 36.3556 24.8234 36.3152 24.6318C36.2748 24.4402 36.1899 24.2608 36.0674 24.108L33.7486 21.2033ZM31.233 20.1877C31.2595 20.6394 31.2595 21.0922 31.233 21.5439C31.2144 21.8532 31.3113 22.1583 31.5049 22.4002L33.722 25.1705C33.4676 25.979 33.1419 26.7634 32.7486 27.5142L29.2174 27.9142C28.9098 27.9484 28.6259 28.0953 28.4205 28.3267C28.1197 28.665 27.7994 28.9853 27.4611 29.2861C27.2297 29.4915 27.0827 29.7755 27.0486 30.083L26.6564 33.6111C25.9056 34.0046 25.1213 34.3303 24.3127 34.5845L21.5408 32.3674C21.319 32.1901 21.0435 32.0937 20.7595 32.0939H20.6845C20.2329 32.1205 19.78 32.1205 19.3283 32.0939C19.019 32.0753 18.7139 32.1722 18.472 32.3658L15.6939 34.5845C14.8854 34.3301 14.101 34.0044 13.3502 33.6111L12.9502 30.0845C12.916 29.777 12.7691 29.4931 12.5377 29.2877C12.1994 28.9869 11.8791 28.6666 11.5783 28.3283C11.3729 28.0969 11.0889 27.9499 10.7814 27.9158L7.25329 27.522C6.85984 26.7713 6.53408 25.9869 6.27986 25.1783L8.49704 22.4064C8.69065 22.1646 8.78753 21.8594 8.76892 21.5502C8.74236 21.0985 8.74236 20.6456 8.76892 20.1939C8.78753 19.8847 8.69065 19.5795 8.49704 19.3377L6.27986 16.5611C6.53427 15.7526 6.86003 14.9682 7.25329 14.2174L10.7799 13.8174C11.0874 13.7832 11.3713 13.6362 11.5767 13.4049C11.8775 13.0666 12.1978 12.7462 12.5361 12.4455C12.7684 12.2399 12.916 11.9553 12.9502 11.647L13.3424 8.12048C14.0931 7.72703 14.8775 7.40126 15.6861 7.14704L18.458 9.36423C18.6998 9.55783 19.005 9.65472 19.3142 9.63611C19.7659 9.60955 20.2188 9.60955 20.6705 9.63611C20.9797 9.65472 21.2849 9.55783 21.5267 9.36423L24.3033 7.14704C25.1118 7.40146 25.8962 7.72722 26.647 8.12048L27.047 11.647C27.0812 11.9546 27.2282 12.2385 27.4595 12.4439C27.7978 12.7447 28.1182 13.065 28.4189 13.4033C28.6243 13.6347 28.9083 13.7817 29.2158 13.8158L32.7439 14.208C33.1374 14.9588 33.4631 15.7431 33.7174 16.5517L31.5002 19.3236C31.3047 19.5675 31.2077 19.8758 31.2283 20.1877H31.233Z" fill="#1570EF"/>
</svg>
