<svg width="101" height="28" viewBox="0 0 101 28" fill="none" xmlns="http://www.w3.org/2000/svg">
<path d="M48.7487 17.348H43.4888L42.1684 21.3286C42.1489 21.4478 42.0688 21.5083 41.9282 21.5083H39.5492C39.389 21.5083 39.35 21.4282 39.389 21.2876L44.1099 7.80669C44.2095 7.58598 44.2896 7.14651 44.3091 6.52735C44.3091 6.42774 44.3697 6.38672 44.4693 6.38672H47.7292C47.8092 6.38672 47.8698 6.42578 47.9089 6.50586L53.1688 21.3071C53.2079 21.4478 53.1688 21.5064 53.0282 21.5064H50.3484C50.2488 21.5064 50.1687 21.4458 50.1277 21.3462L48.7487 17.348ZM44.0689 15.1487H48.1491C48.0885 14.928 47.7682 13.969 47.1881 12.2678C46.6276 10.547 46.2486 9.36729 46.069 8.72859H46.0494C45.8893 9.50792 45.2291 11.6486 44.0689 15.1487Z" fill="#E63523"/>
<path d="M59.5705 21.7291C57.8107 21.7291 56.4102 21.2486 55.3301 20.3091C54.2695 19.3481 53.75 17.9282 53.75 16.0687C53.75 14.389 54.3106 13.0081 55.4493 11.9084C56.5899 10.8088 58.1291 10.2482 60.049 10.2482C60.5686 10.2482 61.01 10.2873 61.3284 10.3888V5.3086C61.3284 5.20899 61.3889 5.14844 61.4885 5.14844H64.0687C64.1683 5.14844 64.2093 5.1875 64.2093 5.28907V18.9692C64.2093 19.229 64.2289 19.7485 64.2699 20.5083C64.2894 20.6079 64.2308 20.688 64.1293 20.7076C62.7112 21.3892 61.1897 21.7291 59.5705 21.7291ZM61.3108 19.3677V12.4866C60.9709 12.3264 60.5315 12.2463 59.9904 12.2463C58.9904 12.2463 58.1896 12.5667 57.59 13.2268C56.9903 13.8675 56.6895 14.766 56.6895 15.9476C56.6895 17.1879 56.9903 18.1079 57.59 18.7075C58.1896 19.3071 58.9494 19.6079 59.8908 19.6079C60.51 19.6294 60.9709 19.5493 61.3108 19.3677Z" fill="#E63523"/>
<path d="M71.5119 10.248C73.2327 10.248 74.5921 10.7871 75.5726 11.8672C76.5531 12.9474 77.0531 14.3068 77.0531 15.9475C77.0531 17.7268 76.5336 19.1468 75.514 20.1878C74.4944 21.2074 73.1331 21.727 71.4748 21.727C69.6349 21.727 68.254 21.1664 67.295 20.0667C66.334 18.9476 65.875 17.5862 65.875 15.9865C65.875 14.3068 66.3945 12.9259 67.4141 11.8458C68.4513 10.7871 69.8126 10.248 71.5119 10.248ZM71.3928 12.2286C70.6134 12.2286 69.9728 12.5684 69.4923 13.2286C69.0118 13.8888 68.7716 14.7892 68.7716 15.9494C68.7716 17.1096 69.0118 18.0296 69.4923 18.7093C69.9728 19.389 70.6525 19.7288 71.5119 19.7288C72.2522 19.7288 72.8713 19.4085 73.3713 18.7893C73.8714 18.1487 74.1116 17.2092 74.1116 15.9689C74.1116 14.8283 73.8909 13.9298 73.4319 13.2481C72.9924 12.5684 72.3127 12.2286 71.3928 12.2286Z" fill="#E63523"/>
<path d="M78.8477 5.14844H81.3868C81.5059 5.14844 81.5665 5.20899 81.5665 5.32813V10.6682C82.3068 10.3889 83.0861 10.2678 83.926 10.2678C85.5061 10.2678 86.7659 10.7678 87.7054 11.7873C88.6663 12.7874 89.1254 14.0882 89.1254 15.6683C89.1254 17.5688 88.5453 19.0493 87.3655 20.1489C86.1858 21.2291 84.7854 21.7681 83.1447 21.7681C81.4454 21.7681 80.004 21.4888 78.8047 20.9087C78.7051 20.8697 78.6641 20.7896 78.6641 20.688V5.30665C78.6875 5.1875 78.7285 5.14844 78.8477 5.14844ZM86.1878 15.9281C86.1878 14.7679 85.928 13.889 85.3869 13.2874C84.8674 12.6878 84.1662 12.387 83.2677 12.387C82.6075 12.387 82.0275 12.5061 81.547 12.7464V19.3657C81.9864 19.606 82.5665 19.7251 83.2873 19.7251C84.0881 19.7251 84.7678 19.4048 85.3264 18.7446C85.9084 18.0883 86.1878 17.1488 86.1878 15.9281Z" fill="#E63523"/>
<path d="M97.8108 16.508H93.2501C93.2696 17.428 93.5509 18.1682 94.1095 18.7288C94.6896 19.2679 95.5099 19.5491 96.6096 19.5491C97.6897 19.5491 98.6292 19.3695 99.43 18.9886C99.5296 18.9495 99.5706 18.9886 99.5706 19.1077V20.807C99.5706 20.9476 99.5316 21.0277 99.43 21.0863C98.469 21.5258 97.3303 21.7465 96.01 21.7465C94.9904 21.7465 94.1095 21.5863 93.3497 21.266C92.5899 20.9457 92.0098 20.5257 91.5899 19.9652C91.1699 19.4261 90.8496 18.8245 90.6289 18.1858C90.4297 17.5256 90.3281 16.8459 90.3281 16.1057C90.3281 14.465 90.8086 13.0665 91.7481 11.9454C92.7091 10.8047 94.0275 10.2461 95.6877 10.2461C97.2678 10.2461 98.4475 10.707 99.2269 11.6465C100.006 12.586 100.407 13.6857 100.407 14.9474C100.407 15.4084 100.368 15.8478 100.307 16.2483C100.287 16.3479 100.227 16.4084 100.127 16.4279C99.7112 16.4885 98.93 16.508 97.8108 16.508ZM93.2306 14.7482H96.4514C97.1721 14.7482 97.5706 14.7287 97.6506 14.7091C97.6702 14.6486 97.6702 14.549 97.6702 14.3888C97.6702 13.8087 97.51 13.3087 97.1702 12.8497C96.8498 12.3887 96.3303 12.17 95.59 12.17C94.8693 12.17 94.3107 12.4102 93.9103 12.9102C93.5294 13.3888 93.3106 14.0079 93.2306 14.7482Z" fill="#E63523"/>
<path d="M19.2891 0.667969H30.348V27.1689L19.2891 0.667969Z" fill="#E63523"/>
<path d="M11.4867 0.667969H0.40625V27.1689L11.4867 0.667969Z" fill="#E63523"/>
<path d="M15.3869 10.4277L22.4262 27.1685H17.8069L15.7072 21.8285H10.5469L15.3869 10.4277Z" fill="#E63523"/>
</svg>
