<svg width="101" height="32" viewBox="0 0 101 32" fill="none" xmlns="http://www.w3.org/2000/svg">
<g clip-path="url(#clip0_1821_23243)">
<path d="M29.7477 22.4601C29.607 22.0652 29.4426 21.6832 29.2862 21.3291C29.0454 20.7846 28.7933 20.239 28.5494 19.7117L28.53 19.6698C26.3547 14.9589 24.0198 10.1836 21.5903 5.4767L21.4872 5.27684C21.2394 4.79619 20.9832 4.29919 20.7202 3.81086C20.4085 3.19286 20.0301 2.61061 19.592 2.07441C19.0988 1.48601 18.4822 1.01279 17.7858 0.688111C17.0895 0.363436 16.3301 0.195312 15.5615 0.195312C14.7929 0.195312 14.0337 0.363819 13.3373 0.688669C12.641 1.01352 12.0246 1.4869 11.5315 2.07542C11.0939 2.61174 10.7158 3.19387 10.4039 3.81157C10.1387 4.30428 9.8801 4.80588 9.63005 5.29097L9.53428 5.47665C7.10476 10.1839 4.76988 14.9592 2.59451 19.6697L2.56281 19.7383C2.32313 20.2571 2.07531 20.7935 1.83855 21.3289C1.6821 21.6827 1.5179 22.0644 1.37706 22.4603C0.973683 23.5388 0.845143 24.7005 1.003 25.8409C1.1704 26.9934 1.63653 28.0823 2.35521 28.9996C3.07388 29.917 4.02019 30.631 5.10038 31.071C5.91627 31.4011 6.78866 31.5698 7.66903 31.5679C7.94558 31.5679 8.22189 31.5517 8.49659 31.5197C9.61005 31.3779 10.6839 31.0155 11.6552 30.454C12.9294 29.7383 14.1877 28.6892 15.5623 27.1902C16.9369 28.6892 18.1952 29.7383 19.4694 30.454C20.4406 31.0156 21.5146 31.3779 22.628 31.5197C22.9027 31.5517 23.1791 31.5679 23.4556 31.5679C24.3359 31.5698 25.2082 31.4011 26.0241 31.071C27.1043 30.631 28.0506 29.917 28.7694 28.9996C29.4881 28.0823 29.9543 26.9934 30.1217 25.8409C30.2794 24.7004 30.1508 23.5387 29.7477 22.4601ZM15.5623 24.0943C13.8606 21.9374 12.7687 19.9343 12.3855 18.2551C12.2286 17.6259 12.1915 16.9729 12.2763 16.3299C12.3433 15.8586 12.5164 15.4086 12.7827 15.0137C13.1103 14.5888 13.5314 14.2447 14.0134 14.008C14.4953 13.7713 15.0253 13.6482 15.5625 13.6482C16.0998 13.6482 16.6297 13.7714 17.1116 14.0083C17.5936 14.245 18.0146 14.5891 18.3422 15.014C18.6085 15.4091 18.7816 15.8591 18.8486 16.3305C18.9332 16.9737 18.896 17.627 18.7388 18.2564C18.3552 19.9354 17.2636 21.9379 15.5623 24.0943ZM28.1342 25.557C28.0171 26.3628 27.6911 27.1241 27.1887 27.7655C26.6861 28.407 26.0245 28.9063 25.2692 29.2139C24.5054 29.5199 23.6766 29.6284 22.8598 29.5291C22.0106 29.4197 21.1923 29.1403 20.4541 28.7075C19.32 28.0703 18.1719 27.0922 16.88 25.6573C18.9366 23.1214 20.2208 20.784 20.6963 18.7022C20.9103 17.8267 20.9567 16.9187 20.8331 16.0262C20.7209 15.2573 20.4354 14.5237 19.9982 13.8809C19.4859 13.1874 18.8177 12.6235 18.0473 12.235C17.2768 11.8465 16.4257 11.644 15.5625 11.644C14.6994 11.644 13.8482 11.8464 13.0777 12.2348C12.3072 12.6233 11.639 13.187 11.1267 13.8805C10.6895 14.5232 10.4041 15.2565 10.2918 16.0252C10.1681 16.9175 10.2143 17.8249 10.4278 18.7001C10.903 20.7829 12.1873 23.1208 14.2446 25.6575C12.9527 27.0922 11.8047 28.0703 10.6705 28.7076C9.93228 29.1403 9.11404 29.4198 8.2649 29.5291C7.44794 29.6284 6.61912 29.5199 5.85534 29.2139C5.10006 28.9063 4.4384 28.407 3.93591 27.7656C3.43343 27.1241 3.10755 26.3628 2.99055 25.557C2.87801 24.7379 2.97378 23.9036 3.26905 23.1312C3.38128 22.8157 3.51263 22.5061 3.67534 22.1383C3.90554 21.6179 4.14982 21.0889 4.38612 20.5775L4.41785 20.5087C6.58106 15.8246 8.903 11.0759 11.3193 6.39427L11.4154 6.20789C11.6614 5.73062 11.9158 5.23715 12.1725 4.76031C12.418 4.26885 12.7151 3.80483 13.059 3.3761C13.3636 3.00809 13.7459 2.71179 14.1786 2.50839C14.6113 2.30498 15.0837 2.19945 15.5619 2.19945C16.0401 2.19945 16.5126 2.30483 16.9452 2.50817C17.378 2.7115 17.7603 3.00773 18.0651 3.37569C18.4091 3.80411 18.7063 4.26797 18.9516 4.75941C19.2059 5.232 19.4581 5.72103 19.702 6.19392L19.8053 6.39448C22.2215 11.0756 24.5434 15.8242 26.7068 20.5091L26.7263 20.5513C26.9667 21.0714 27.2152 21.6089 27.4493 22.1384C27.6122 22.5068 27.7438 22.8167 27.8557 23.131C28.1508 23.9035 28.2466 24.7378 28.1342 25.557Z" fill="#FF385C"/>
<path d="M41.8042 23.8417C41.0208 23.8417 40.3001 23.6847 39.642 23.3707C38.9839 23.0567 38.4199 22.6169 37.9184 22.0517C37.4171 21.4865 37.0411 20.8269 36.759 20.1047C36.477 19.351 36.3516 18.5345 36.3516 17.6552C36.3516 16.7759 36.5083 15.9279 36.7903 15.1742C37.0723 14.4206 37.4797 13.7611 37.9812 13.1644C38.4825 12.5991 39.0779 12.128 39.7673 11.814C40.4568 11.5 41.1775 11.3429 41.9923 11.3429C42.7757 11.3429 43.4651 11.5 44.0919 11.8454C44.7186 12.1595 45.22 12.6305 45.6273 13.2271L45.7214 11.6884H48.6044V23.5276H45.7214L45.6273 21.8005C45.22 22.4285 44.6872 22.931 43.9978 23.3078C43.3711 23.6533 42.619 23.8417 41.8042 23.8417ZM42.5564 21.0154C43.1204 21.0154 43.6218 20.8583 44.0919 20.5757C44.5306 20.2616 44.8753 19.8534 45.1573 19.351C45.408 18.8485 45.5333 18.2518 45.5333 17.5923C45.5333 16.9328 45.408 16.3362 45.1573 15.8337C44.9067 15.3313 44.5306 14.923 44.0919 14.609C43.6531 14.2949 43.1204 14.1693 42.5564 14.1693C41.9922 14.1693 41.4909 14.3264 41.0208 14.609C40.5822 14.923 40.2374 15.3313 39.9554 15.8337C39.7047 16.3362 39.5793 16.9328 39.5793 17.5923C39.5793 18.2518 39.7047 18.8485 39.9554 19.351C40.2061 19.8534 40.5822 20.2616 41.0208 20.5757C41.4909 20.8583 41.9922 21.0154 42.5564 21.0154ZM53.5243 8.48518C53.5243 8.83062 53.4617 9.14467 53.3049 9.3959C53.1482 9.64713 52.9289 9.86695 52.6469 10.024C52.3648 10.181 52.0515 10.2438 51.7381 10.2438C51.4247 10.2438 51.1114 10.181 50.8293 10.024C50.5473 9.86695 50.3279 9.64713 50.1713 9.3959C50.0145 9.11326 49.9519 8.83062 49.9519 8.48518C49.9519 8.13974 50.0145 7.8257 50.1713 7.57446C50.3279 7.29183 50.5473 7.10341 50.8293 6.94639C51.1114 6.78937 51.4247 6.72656 51.7381 6.72656C52.0515 6.72656 52.3648 6.78937 52.6469 6.94639C52.9289 7.10341 53.1482 7.32324 53.3049 7.57446C53.4303 7.8257 53.5243 8.10834 53.5243 8.48518ZM50.1713 23.4963V11.6569H53.3049V23.4963H50.1713ZM61.672 14.766V14.7973C61.5153 14.7346 61.3272 14.7031 61.1705 14.6717C60.9825 14.6404 60.8258 14.6404 60.6378 14.6404C59.7604 14.6404 59.1023 14.8916 58.6635 15.4255C58.1935 15.9593 57.9741 16.713 57.9741 17.6866V23.4963H54.8405V11.6569H57.7234L57.8174 13.447C58.1309 12.8189 58.5069 12.3478 59.0396 12.0024C59.541 11.6569 60.1364 11.5 60.8258 11.5C61.0452 11.5 61.2645 11.5314 61.4525 11.5627C61.5466 11.5942 61.6092 11.5942 61.672 11.6256V14.766ZM62.9254 23.4963V6.78937H66.0591V13.1644C66.4978 12.5991 66.9992 12.1594 67.626 11.814C68.2527 11.5 68.9422 11.3116 69.7256 11.3116C70.5089 11.3116 71.2297 11.4685 71.8877 11.7826C72.5459 12.0967 73.1099 12.5363 73.6114 13.1016C74.1127 13.6668 74.4887 14.3264 74.7708 15.0486C75.0528 15.8023 75.1781 16.6188 75.1781 17.4981C75.1781 18.3774 75.0215 19.2254 74.7395 19.979C74.4574 20.7327 74.0501 21.3922 73.5486 21.9889C73.0472 22.5542 72.4519 23.0252 71.7624 23.3393C71.073 23.6533 70.3522 23.8103 69.5375 23.8103C68.7541 23.8103 68.0647 23.6533 67.4379 23.3078C66.8112 22.9938 66.3098 22.5227 65.9024 21.9261L65.8084 23.4649L62.9254 23.4963ZM68.9734 21.0154C69.5375 21.0154 70.0389 20.8583 70.5089 20.5757C70.9476 20.2616 71.2923 19.8534 71.5744 19.351C71.8251 18.8485 71.9505 18.2518 71.9505 17.5923C71.9505 16.9328 71.8251 16.3362 71.5744 15.8337C71.2923 15.3313 70.9476 14.923 70.5089 14.609C70.0703 14.2949 69.5375 14.1693 68.9734 14.1693C68.4094 14.1693 67.908 14.3264 67.4379 14.609C66.9992 14.923 66.6545 15.3313 66.3724 15.8337C66.1218 16.3362 65.9965 16.9328 65.9965 17.5923C65.9965 18.2518 66.1218 18.8485 66.3724 19.351C66.6231 19.8534 66.9992 20.2616 67.4379 20.5757C67.908 20.8583 68.4094 21.0154 68.9734 21.0154ZM76.369 23.4963V11.6569H79.252L79.346 13.1958C79.6907 12.6305 80.1608 12.1909 80.7562 11.8454C81.3516 11.5 82.041 11.3429 82.8244 11.3429C83.7019 11.3429 84.4539 11.5627 85.0807 11.9711C85.7387 12.3793 86.2402 12.976 86.5849 13.7297C86.9296 14.4833 87.1175 15.394 87.1175 16.4304V23.5276H83.9839V16.8386C83.9839 16.0221 83.7959 15.3626 83.4198 14.8916C83.0438 14.4206 82.5423 14.1693 81.8843 14.1693C81.4142 14.1693 81.0069 14.2635 80.6308 14.4833C80.2861 14.7031 80.0041 14.9858 79.7847 15.3941C79.5654 15.7709 79.4714 16.2419 79.4714 16.713V23.4963H76.369ZM88.6844 23.4963V6.78937H91.8181V13.1644C92.2569 12.5991 92.7582 12.1594 93.385 11.814C94.0118 11.5 94.7012 11.3116 95.4846 11.3116C96.268 11.3116 96.9887 11.4685 97.6469 11.7826C98.3049 12.0967 98.8689 12.5363 99.3702 13.1016C99.8722 13.6668 100.248 14.3264 100.53 15.0486C100.812 15.8023 100.937 16.6188 100.937 17.4981C100.937 18.3774 100.781 19.2254 100.499 19.979C100.216 20.7327 99.8094 21.3922 99.3074 21.9889C98.8063 22.5542 98.2109 23.0252 97.5215 23.3393C96.832 23.6533 96.1113 23.8103 95.2966 23.8103C94.5131 23.8103 93.8237 23.6533 93.1969 23.3078C92.5702 22.9938 92.0688 22.5227 91.6615 21.9261L91.5674 23.4649L88.6844 23.4963ZM94.7638 21.0154C95.3278 21.0154 95.8293 20.8583 96.2993 20.5757C96.738 20.2616 97.0827 19.8534 97.3648 19.351C97.6155 18.8485 97.7409 18.2518 97.7409 17.5923C97.7409 16.9328 97.6155 16.3362 97.3648 15.8337C97.1141 15.3313 96.738 14.923 96.2993 14.609C95.8606 14.2949 95.3278 14.1693 94.7638 14.1693C94.1997 14.1693 93.6983 14.3264 93.2283 14.609C92.7896 14.923 92.4449 15.3313 92.1628 15.8337C91.8808 16.3362 91.7868 16.9328 91.7868 17.5923C91.7868 18.2518 91.9121 18.8485 92.1628 19.351C92.4135 19.8534 92.7896 20.2616 93.2283 20.5757C93.6983 20.8583 94.1684 21.0154 94.7638 21.0154Z" fill="#FF385C"/>
</g>
<defs>
<clipPath id="clip0_1821_23243">
<rect width="100" height="31.4453" fill="white" transform="translate(0.9375 0.195312)"/>
</clipPath>
</defs>
</svg>
