<svg width="101" height="31" viewBox="0 0 101 31" fill="none" xmlns="http://www.w3.org/2000/svg">
<g clip-path="url(#clip0_1821_23228)">
<path d="M23.391 8.25615V17.5643C23.391 17.7152 23.331 17.8599 23.2244 17.9666C23.1177 18.0733 22.973 18.1332 22.8221 18.1332H19.8837C19.7329 18.1332 19.5882 18.0732 19.4815 17.9665C19.3749 17.8599 19.3149 17.7152 19.3148 17.5643V2.42412C19.3148 2.27323 19.3748 2.12853 19.4815 2.02184C19.5881 1.91515 19.7328 1.85521 19.8837 1.85521H22.6028C22.7537 1.85521 22.8984 1.91515 23.0051 2.02184C23.1118 2.12853 23.1717 2.27323 23.1717 2.42412V4.55626C23.1717 4.55626 24.1438 1.51482 27.0284 1.51482C27.0284 1.51482 29.8817 1.16992 31.0419 4.33677C31.0419 4.33677 32.0139 1.51482 34.9612 1.51482C34.9612 1.51482 39.3444 1.2542 39.3444 5.78964L39.3778 8.2875V17.5957C39.3778 17.7466 39.3178 17.8913 39.2112 17.998C39.1045 18.1046 38.9598 18.1646 38.8089 18.1646H35.8703C35.7194 18.1645 35.5748 18.1046 35.4681 17.9979C35.3614 17.8912 35.3014 17.7465 35.3014 17.5957L35.2745 7.44092C35.3581 5.14147 33.4978 5.30878 33.4978 5.30878C31.1567 5.35067 31.382 8.2875 31.382 8.2875V17.5957C31.382 17.7466 31.3221 17.8913 31.2154 17.998C31.1087 18.1046 30.964 18.1646 30.8131 18.1646H27.8747C27.7239 18.1645 27.5792 18.1046 27.4725 17.9979C27.3659 17.8912 27.3059 17.7465 27.3058 17.5957V7.67069C27.3058 7.67069 27.4777 5.28771 25.3872 5.28771C25.3874 5.28771 23.318 5.01605 23.391 8.25615ZM99.1334 8.22831V17.5362C99.1334 17.6871 99.0734 17.8318 98.9667 17.9384C98.8601 18.0451 98.7154 18.1051 98.5645 18.1051L95.5085 18.1643C95.3577 18.1643 95.213 18.1043 95.1063 17.9976C94.9997 17.891 94.9397 17.7463 94.9396 17.5954V7.67069C94.9396 7.67069 95.1115 5.28771 93.0212 5.28771C93.0212 5.28771 91.0248 5.18938 91.0248 8.92564V17.5641C91.0247 17.7149 90.9647 17.8596 90.8581 17.9663C90.7514 18.073 90.6067 18.1329 90.4559 18.133H87.5173C87.3664 18.1329 87.2217 18.073 87.1151 17.9663C87.0084 17.8596 86.9484 17.7149 86.9484 17.5641V2.42412C86.9484 2.27325 87.0084 2.12859 87.1151 2.02191C87.2217 1.91524 87.3664 1.85528 87.5173 1.85521H90.2364C90.3873 1.85521 90.532 1.91515 90.6387 2.02184C90.7453 2.12853 90.8053 2.27323 90.8053 2.42412V4.55626C90.8053 4.55626 91.7773 1.51482 94.662 1.51482C94.662 1.51482 97.7521 1.046 98.7928 4.27782C98.793 4.27757 99.1334 4.94431 99.1334 8.22831ZM77.9174 1.45211C74.1598 1.45211 71.1133 4.61897 71.1133 9.94932C71.1133 14.6423 73.465 18.4465 77.9174 18.4465C82.1189 18.4465 84.7214 14.6423 84.7214 9.94932C84.7214 4.71303 81.6752 1.45211 77.9174 1.45211ZM80.2891 10.1375C80.2891 12.1442 80.0382 13.2102 80.0382 13.2102C79.6813 15.3316 78.1414 15.3346 77.9144 15.3233C77.6693 15.3331 76.1163 15.311 75.795 13.2102C75.795 13.2102 75.5442 12.1442 75.5442 10.1375V9.80308C75.5442 7.79636 75.795 6.73029 75.795 6.73029C76.1163 4.6295 77.6695 4.60743 77.9144 4.61696C78.1414 4.60567 79.6813 4.60843 80.0382 6.73029C80.0382 6.73029 80.2891 7.79636 80.2891 9.80308V10.1375ZM69.4079 4.53519V2.36291C69.4078 2.21205 69.3478 2.06738 69.2412 1.96071C69.1345 1.85403 68.9898 1.79407 68.839 1.79401H59.1264C58.9755 1.79401 58.8308 1.85394 58.7241 1.96063C58.6175 2.06732 58.5575 2.21203 58.5575 2.36291V4.51838C58.5576 4.66924 58.6175 4.81391 58.7242 4.92058C58.8309 5.02726 58.9756 5.08722 59.1264 5.08729H64.1926L58.1961 13.7864C58.1961 13.7864 57.9598 14.1391 57.9675 14.5287V17.1748C57.9675 17.1748 57.9284 18.0821 58.9574 17.5555C58.9574 17.5555 60.785 16.4513 63.8495 16.4513C63.8495 16.4513 66.8759 16.4137 68.8936 17.6506C68.8936 17.6506 69.7312 18.0314 69.7312 17.1941V14.8909C69.7312 14.8909 69.8072 14.2813 69.0078 13.9008C69.0078 13.9008 66.6855 12.6255 63.64 12.8347L69.4079 4.53519ZM17.047 15.4257L16.1272 14.0255C15.8344 13.5027 15.8555 12.9173 15.8555 12.9173V6.45838C15.9809 0.877185 9.79344 1.35805 9.79344 1.35805C4.29301 1.35805 3.48054 5.63863 3.48054 5.63863C3.25127 6.49927 3.91801 6.52008 3.91801 6.52008L6.60576 6.79275C6.60576 6.79275 7.06404 6.8976 7.23085 6.35202C7.23085 6.35202 7.58479 4.48452 9.56417 4.48452C11.7179 4.48452 11.6956 6.33296 11.6956 6.33296V7.88039C7.39616 8.02412 5.40373 9.21762 5.40373 9.21762C2.74909 10.7227 2.91615 13.7119 2.91615 13.7119C2.91615 18.5822 7.55669 18.373 7.55669 18.373C10.5249 18.373 12.2808 16.1993 12.2808 16.1993C12.8033 17.1193 13.765 17.9968 13.765 17.9968C14.2461 18.5185 14.7475 18.0806 14.7475 18.0806L16.9216 16.2203C17.4022 15.8646 17.047 15.4257 17.047 15.4257ZM9.0053 15.3655C7.60912 15.3655 7.09013 13.9781 7.32191 12.6145C7.55393 11.2509 8.75897 10.1793 11.6958 10.2107V11.0397C11.7999 14.6614 10.1674 15.3655 9.0053 15.3655ZM56.0943 15.4257L55.1747 14.0255C54.882 13.5027 54.9028 12.9173 54.9028 12.9173V6.45838C55.0282 0.877185 48.8407 1.35805 48.8407 1.35805C43.3403 1.35805 42.5278 5.63863 42.5278 5.63863C42.2986 6.49927 42.9653 6.52008 42.9653 6.52008L45.653 6.79275C45.653 6.79275 46.1113 6.8976 46.2781 6.35202C46.2781 6.35202 46.6321 4.48452 48.6115 4.48452C50.7652 4.48452 50.7428 6.33296 50.7428 6.33296V7.88039C46.4437 8.02412 44.451 9.21762 44.451 9.21762C41.7964 10.7227 41.9634 13.7119 41.9634 13.7119C41.9634 18.5822 46.604 18.373 46.604 18.373C49.5722 18.373 51.3281 16.1993 51.3281 16.1993C51.8508 17.1193 52.812 17.9968 52.812 17.9968C53.2931 18.5185 53.7948 18.0806 53.7948 18.0806L55.9686 16.2203C56.4495 15.8646 56.0943 15.4257 56.0943 15.4257ZM48.0526 15.3655C46.6564 15.3655 46.1374 13.9781 46.3692 12.6145C46.6012 11.2509 47.8063 10.1793 50.7428 10.2107V11.0397C50.8472 14.6614 49.215 15.3655 48.0526 15.3655Z" fill="black"/>
<path d="M63.4888 27.6518C63.4888 27.6518 63.243 28.0795 63.545 28.1751C63.545 28.1751 63.8861 28.3083 64.3115 27.9135C64.3115 27.9135 67.4142 25.2031 67.4889 20.2686C67.4889 20.2686 67.5118 19.6523 67.2644 19.4837C67.2644 19.4837 66.2924 18.6238 62.7972 18.8855C62.7972 18.8855 59.7505 19.0912 58.0872 20.5679C58.0872 20.5679 57.9377 20.6985 57.9377 20.8666C57.9377 20.8666 57.9018 21.2296 58.8161 21.0723C58.8161 21.0723 61.8626 20.6421 63.6757 20.8666C63.6757 20.8666 64.6105 20.9787 64.8722 21.2968C64.8722 21.2968 65.3021 21.652 65.0776 22.8292C65.0776 22.8297 64.4605 25.8202 63.4888 27.6518Z" fill="#F3971B"/>
<path d="M62.8741 22.9185C62.8741 22.9185 63.3291 23.508 62.5949 24.0164C62.5949 24.0164 54.7519 30.29 41.5827 30.29C41.5827 30.29 28.0268 30.9587 16.7077 20.6742C16.7077 20.6742 16.3108 20.3258 16.5572 20.002C16.5572 20.002 16.7774 19.704 17.3476 20.0281C17.3476 20.0281 27.9955 26.6631 41.9798 26.6631C41.9798 26.6631 51.6999 27.0393 61.6708 22.775C61.6708 22.775 62.4652 22.3634 62.8741 22.9185Z" fill="#F3971B"/>
</g>
<defs>
<clipPath id="clip0_1821_23228">
<rect width="100" height="30.08" fill="white" transform="translate(0.9375 0.878906)"/>
</clipPath>
</defs>
</svg>
