<svg width="101" height="41" viewBox="0 0 101 41" fill="none" xmlns="http://www.w3.org/2000/svg">
<g clip-path="url(#clip0_1821_23318)">
<path d="M0.9375 11.6855H8.26876C9.66519 11.6855 10.7125 12.0347 11.4883 12.6165C12.3417 13.3147 12.8072 14.3233 12.8072 15.5645C12.8072 16.9997 12.2253 17.8919 11.0616 18.435V18.5125C12.6132 19.0168 13.5054 20.4132 13.5054 22.0812C13.5054 23.6716 12.8847 24.9129 11.8762 25.6886C11.0228 26.3093 9.93672 26.5808 8.46271 26.5808H0.9375V11.6855ZM7.53176 17.504C8.30755 17.504 8.8894 17.0773 8.8894 16.1852C8.8894 15.3318 8.30755 14.9051 7.49297 14.9051H4.97164V17.4652H7.53176V17.504ZM7.88087 23.2837C8.77303 23.2837 9.43246 22.7406 9.43246 21.7709C9.43246 20.7236 8.73424 20.2581 7.88087 20.2581H5.01043V23.3225H7.88087V23.2837ZM14.1648 11.6855H18.005V26.6196H14.1648V11.6855ZM18.7808 21.3054C18.7808 17.9307 20.953 15.6809 24.3277 15.6809C27.7024 15.6809 29.8359 17.9695 29.8359 21.3054C29.8359 24.6801 27.7024 26.9299 24.3277 26.9299C20.953 26.9299 18.7808 24.6801 18.7808 21.3054ZM25.9957 21.3054C25.9957 19.4435 25.4138 18.2798 24.2501 18.2798C23.0865 18.2798 22.5434 19.4435 22.5434 21.3054C22.5434 23.1673 23.0865 24.3698 24.2501 24.3698C25.4138 24.331 25.9957 23.1673 25.9957 21.3054ZM30.2626 21.3054C30.2626 17.9307 32.4348 15.6809 35.8095 15.6809C39.1842 15.6809 41.2789 17.9307 41.2789 21.3054C41.2789 24.6801 39.1454 26.9299 35.7707 26.9299C32.4348 26.9299 30.2626 24.6801 30.2626 21.3054ZM37.4775 21.3054C37.4775 19.4435 36.8956 18.2798 35.7319 18.2798C34.5682 18.2798 34.0252 19.4435 34.0252 21.3054C34.0252 23.1673 34.5682 24.3698 35.7319 24.3698C36.8956 24.331 37.4775 23.1673 37.4775 21.3054ZM42.0546 15.9524H45.6233V17.5428H45.7009C46.3991 16.3015 47.3688 15.6421 48.9204 15.6421C50.2781 15.6421 51.2866 16.3015 51.7909 17.4652H51.8685C52.7218 16.0688 53.8467 15.6421 55.1656 15.6421C57.6481 15.6421 58.6955 17.4652 58.6955 19.909V26.5808H54.9716V20.5684C54.9716 19.4823 54.6225 18.7841 53.6916 18.7841C52.7606 18.7841 52.2951 19.6374 52.2951 20.8011V26.5808H48.5713V20.5684C48.5713 19.4823 48.2222 18.7841 47.2913 18.7841C46.3603 18.7841 45.8948 19.6374 45.8948 20.8011V26.5808H42.0546V15.9524ZM63.389 25.1844H63.3502V26.5808H59.7816V11.6855H63.5054V17.0385H63.583C64.2812 16.1076 65.2509 15.6033 66.6086 15.6033C69.2851 15.6033 70.8367 18.0083 70.8367 21.2278C70.8367 24.8353 69.1687 26.9299 66.3758 26.9299C65.2121 26.9299 64.0097 26.3869 63.389 25.1844ZM66.9965 21.189C66.9965 19.4823 66.3758 18.3574 65.2509 18.3574C64.0872 18.3574 63.389 19.4823 63.389 21.189C63.389 22.8958 64.126 24.0207 65.2509 24.0207C66.3758 24.0207 66.9965 22.9346 66.9965 21.189ZM71.2633 21.2666C71.2633 17.9307 73.4744 15.6421 76.6551 15.6421C78.2455 15.6421 79.448 16.1464 80.3789 17.0385C81.6202 18.241 82.1633 20.1029 82.1245 22.2752H74.9872C75.1423 23.594 75.7629 24.2922 76.8878 24.2922C77.5473 24.2922 78.1291 23.9819 78.3619 23.2837H81.9693C81.3487 25.7274 79.448 26.9299 76.7715 26.9299C73.4743 26.8911 71.2633 24.6413 71.2633 21.2666ZM74.9872 20.1417H78.4007C78.3231 18.8617 77.6249 18.2022 76.7327 18.2022C75.6854 18.1634 75.1035 18.9004 74.9872 20.1417ZM86.3526 17.7755H86.4301C87.2059 16.3015 88.2145 15.7197 89.4945 15.7197C89.8048 15.7197 89.9988 15.7585 90.1152 15.8361V19.0944H90.0376C87.8266 18.7065 86.5465 19.7538 86.5465 22.1588V26.6196H82.7839V15.9524H86.3526V17.7755ZM90.5031 26.6196H94.1105C94.2657 27.0851 94.7311 27.5118 95.6233 27.5118C96.8258 27.5118 97.2525 26.7748 97.2525 25.6499V24.8741H97.1749C96.5931 25.5723 95.7785 26.0765 94.6148 26.0765C92.3262 26.0765 90.3091 24.3698 90.3091 21.0339C90.3091 17.9695 91.9383 15.6033 94.4208 15.6033C95.856 15.6033 96.7094 16.1852 97.2913 17.0773H97.3689V15.9136H100.938V25.1456C100.938 26.8523 100.356 28.1712 99.4635 28.947C98.5325 29.7616 97.2137 30.1107 95.7009 30.1107C92.8304 30.1495 90.8522 28.9858 90.5031 26.6196ZM97.4076 20.8787C97.4076 19.5599 96.787 18.4738 95.7009 18.4738C94.6536 18.4738 93.9941 19.4047 93.9941 20.8787C93.9941 22.3139 94.6536 23.3225 95.7009 23.3225C96.7482 23.3225 97.4076 22.2752 97.4076 20.8787Z" fill="black"/>
</g>
<defs>
<clipPath id="clip0_1821_23318">
<rect width="100" height="40.04" fill="white" transform="translate(0.9375 0.898438)"/>
</clipPath>
</defs>
</svg>
