<svg width="101" height="34" viewBox="0 0 101 34" fill="none" xmlns="http://www.w3.org/2000/svg">
<g clip-path="url(#clip0_1821_23164)">
<path d="M97.8127 20.5923L100.6 22.4566C99.695 23.7934 97.5316 26.087 93.7913 26.087C89.1466 26.087 85.6875 22.4811 85.6875 17.8941C85.6875 13.0127 89.1833 9.70117 93.4002 9.70117C97.6416 9.70117 99.7195 13.0863 100.392 14.9137L100.758 15.8458L89.8311 20.3838C90.6623 22.0273 91.9579 22.8613 93.7913 22.8613C95.6248 22.8613 96.896 21.9537 97.8127 20.5923ZM89.2444 17.6365L96.5415 14.5948C96.1381 13.5769 94.9403 12.8532 93.5102 12.8532C91.689 12.8532 89.1588 14.4722 89.2444 17.6365Z" fill="#FF302F"/>
<path d="M80.4141 1.34961H83.9343V25.3396H80.4141V1.34961Z" fill="#20B15A"/>
<path d="M74.8646 10.3375H78.2626V24.9081C78.2626 30.9547 74.7057 33.4444 70.501 33.4444C66.5408 33.4444 64.1573 30.7707 63.265 28.5998L66.3819 27.2998C66.9441 28.6366 68.3009 30.2188 70.501 30.2188C73.2023 30.2188 74.8646 28.5385 74.8646 25.3987V24.2213H74.7424C73.9357 25.2025 72.3956 26.0856 70.4399 26.0856C66.3574 26.0856 62.6172 22.5165 62.6172 17.9172C62.6172 13.2934 66.3574 9.6875 70.4399 9.6875C72.3833 9.6875 73.9357 10.5583 74.7424 11.515H74.8646V10.3375ZM75.1091 17.9172C75.1091 15.0227 73.1901 12.9131 70.7455 12.9131C68.2764 12.9131 66.1985 15.0227 66.1985 17.9172C66.1985 20.7749 68.2764 22.8476 70.7455 22.8476C73.1901 22.8599 75.1091 20.7749 75.1091 17.9172Z" fill="#3686F7"/>
<path d="M43.2987 17.8595C43.2987 22.5814 39.6318 26.0524 35.1337 26.0524C30.6356 26.0524 26.9688 22.5691 26.9688 17.8595C26.9688 13.113 30.6356 9.6543 35.1337 9.6543C39.6318 9.6543 43.2987 13.113 43.2987 17.8595ZM39.7295 17.8595C39.7295 14.9159 37.6027 12.8922 35.1337 12.8922C32.6647 12.8922 30.5379 14.9159 30.5379 17.8595C30.5379 20.7785 32.6647 22.8267 35.1337 22.8267C37.6027 22.8267 39.7295 20.7785 39.7295 17.8595Z" fill="#FF302F"/>
<path d="M61.1268 17.8941C61.1268 22.616 57.4599 26.087 52.9618 26.087C48.4638 26.087 44.7969 22.616 44.7969 17.8941C44.7969 13.1476 48.4638 9.70117 52.9618 9.70117C57.4599 9.70117 61.1268 13.1353 61.1268 17.8941ZM57.5454 17.8941C57.5454 14.9505 55.4186 12.9268 52.9496 12.9268C50.4806 12.9268 48.3538 14.9505 48.3538 17.8941C48.3538 20.8131 50.4806 22.8613 52.9496 22.8613C55.4309 22.8613 57.5454 20.8008 57.5454 17.8941Z" fill="#FFBA40"/>
<path d="M13.5447 22.4941C8.42326 22.4941 4.41412 18.3486 4.41412 13.2096C4.41412 8.07067 8.42326 3.92516 13.5447 3.92516C16.3071 3.92516 18.3239 5.01673 19.8151 6.41492L22.2719 3.94969C20.194 1.95053 17.4194 0.429688 13.5447 0.429688C6.5287 0.429688 0.625 6.16962 0.625 13.2096C0.625 20.2496 6.5287 25.9896 13.5447 25.9896C17.3338 25.9896 20.194 24.7386 22.4308 22.4082C24.7287 20.1025 25.4377 16.8645 25.4377 14.2399C25.4377 13.4181 25.3399 12.5719 25.2299 11.9464H13.5447V15.356H21.8685C21.6241 17.49 20.9518 18.9496 19.9618 19.943C18.7639 21.1572 16.8693 22.4941 13.5447 22.4941Z" fill="#3686F7"/>
</g>
<defs>
<clipPath id="clip0_1821_23164">
<rect width="100.46" height="33.0763" fill="white" transform="translate(0.476562 0.378906)"/>
</clipPath>
</defs>
</svg>
