<svg width="139" height="30" viewBox="0 0 139 30" fill="none" xmlns="http://www.w3.org/2000/svg">
<g clip-path="url(#clip0_1821_23172)">
<path d="M138.407 13.4348V11.0296H135.405V7.29044L135.304 7.32136L132.484 8.17964L132.429 8.1965V11.0296H127.978V9.45151C127.978 8.7166 128.143 8.15417 128.469 7.77911C128.792 7.40851 129.254 7.22015 129.844 7.22015C130.268 7.22015 130.707 7.31954 131.149 7.51551L131.259 7.56462V5.03163L131.207 5.01261C130.795 4.86527 130.235 4.79102 129.54 4.79102C128.664 4.79102 127.869 4.98053 127.175 5.35625C126.48 5.73247 125.934 6.2696 125.552 6.95258C125.17 7.63474 124.977 8.42257 124.977 9.2944V11.0296H122.886V13.4348H124.977V23.5673H127.978V13.4348H132.429V19.8739C132.429 22.5258 133.686 23.8697 136.166 23.8697C136.573 23.8697 137.002 23.8221 137.44 23.729C137.886 23.6336 138.189 23.5382 138.368 23.4363L138.407 23.4131V20.9856L138.285 21.066C138.122 21.1742 137.92 21.2623 137.682 21.3278C137.443 21.3946 137.243 21.4282 137.089 21.4282C136.508 21.4282 136.078 21.2724 135.812 20.9651C135.542 20.6551 135.405 20.1127 135.405 19.3541V13.4348H138.407ZM116.184 21.4284C115.095 21.4284 114.236 21.0691 113.631 20.3613C113.022 19.6498 112.714 18.6356 112.714 17.3471C112.714 16.0176 113.022 14.9771 113.632 14.2531C114.237 13.5339 115.088 13.169 116.16 13.169C117.201 13.169 118.029 13.5176 118.622 14.2057C119.219 14.8972 119.521 15.9295 119.521 17.2745C119.521 18.636 119.237 19.6818 118.675 20.3813C118.118 21.0757 117.28 21.4284 116.184 21.4284ZM116.318 10.7276C114.24 10.7276 112.589 11.3333 111.413 12.5281C110.237 13.7231 109.64 15.3767 109.64 17.4435C109.64 19.4064 110.222 20.9854 111.37 22.1357C112.518 23.2865 114.081 23.8695 116.014 23.8695C118.029 23.8695 119.646 23.2553 120.823 22.0439C121.999 20.8337 122.595 19.1959 122.595 17.1774C122.595 15.1837 122.036 13.593 120.932 12.4502C119.828 11.307 118.276 10.7276 116.318 10.7276ZM104.801 10.7275C103.388 10.7275 102.219 11.0872 101.325 11.7965C100.427 12.5099 99.9708 13.4457 99.9708 14.578C99.9708 15.1666 100.069 15.6895 100.263 16.1328C100.458 16.5778 100.759 16.9694 101.16 17.2982C101.557 17.6243 102.171 17.966 102.984 18.3134C103.667 18.5932 104.177 18.83 104.501 19.0166C104.817 19.1993 105.042 19.3832 105.169 19.5621C105.292 19.7373 105.355 19.9769 105.355 20.2729C105.355 21.1151 104.721 21.5249 103.416 21.5249C102.932 21.5249 102.38 21.4245 101.775 21.2263C101.17 21.0283 100.605 20.7437 100.095 20.3787L99.9708 20.2899V23.1642L100.017 23.1854C100.441 23.3804 100.977 23.5448 101.608 23.6743C102.237 23.8037 102.81 23.8697 103.307 23.8697C104.841 23.8697 106.076 23.5082 106.977 22.7948C107.884 22.0764 108.344 21.1186 108.344 19.947C108.344 19.1019 108.097 18.3771 107.609 17.7927C107.124 17.2129 106.284 16.6807 105.111 16.2102C104.176 15.8371 103.578 15.5274 103.331 15.2898C103.093 15.0601 102.972 14.7353 102.972 14.324C102.972 13.9594 103.121 13.6673 103.427 13.4307C103.736 13.1929 104.166 13.072 104.705 13.072C105.205 13.072 105.716 13.1505 106.225 13.3045C106.733 13.4584 107.18 13.6647 107.553 13.917L107.675 14.0004V11.2737L107.628 11.2536C107.284 11.1069 106.831 10.9814 106.28 10.8795C105.731 10.7786 105.234 10.7275 104.801 10.7275ZM92.1472 21.4284C91.0582 21.4284 90.1991 21.0691 89.5941 20.3613C88.985 19.6498 88.677 18.636 88.677 17.3471C88.677 16.0176 88.9853 14.9771 89.5947 14.2531C90.1998 13.5339 91.0502 13.169 92.1231 13.169C93.1633 13.169 93.9916 13.5176 94.5851 14.2057C95.1815 14.8972 95.484 15.9295 95.484 17.2745C95.484 18.636 95.1993 19.6818 94.6381 20.3813C94.0809 21.0757 93.2433 21.4284 92.1472 21.4284ZM92.2811 10.7276C90.2025 10.7276 88.5518 11.3333 87.3756 12.5281C86.1995 13.7231 85.6028 15.3767 85.6028 17.4435C85.6028 19.4072 86.1852 20.9854 87.3334 22.1357C88.4815 23.2865 90.0439 23.8695 91.9771 23.8695C93.9911 23.8695 95.6094 23.2553 96.7858 22.0439C97.9616 20.8337 98.5579 19.1959 98.5579 17.1774C98.5579 15.1837 97.9986 13.593 96.895 12.4502C95.7907 11.307 94.2383 10.7276 92.2811 10.7276ZM81.0472 13.2008V11.0296H78.0827V23.5669H81.0472V17.1537C81.0472 16.063 81.2957 15.1672 81.7861 14.4905C82.2703 13.8219 82.9156 13.4831 83.7034 13.4831C83.9703 13.4831 84.27 13.5269 84.5947 13.6136C84.916 13.6997 85.1487 13.7932 85.286 13.8916L85.4105 13.9814V11.0081L85.3625 10.9876C85.0864 10.8709 84.6959 10.812 84.2017 10.812C83.4569 10.812 82.7901 11.0501 82.2191 11.519C81.7179 11.9311 81.3556 12.4962 81.0786 13.2008H81.0472ZM72.774 10.7275C71.4141 10.7275 70.2009 11.0177 69.169 11.5896C68.135 12.1628 67.3355 12.9812 66.7914 14.0219C66.2498 15.0601 65.9749 16.2727 65.9749 17.625C65.9749 18.8095 66.2415 19.8967 66.7685 20.8547C67.2958 21.8143 68.0421 22.5651 68.9868 23.0859C69.9301 23.606 71.0204 23.8697 72.2276 23.8697C73.6364 23.8697 74.8392 23.5894 75.8036 23.0369L75.8425 23.0146V20.3128L75.718 20.4032C75.2812 20.7197 74.793 20.9724 74.2677 21.1545C73.7437 21.3364 73.266 21.4283 72.8473 21.4283C71.684 21.4283 70.7503 21.0662 70.0724 20.3524C69.393 19.6375 69.0486 18.6339 69.0486 17.3708C69.0486 16.0998 69.4078 15.0703 70.1158 14.3106C70.8214 13.5532 71.757 13.1691 72.8961 13.1691C73.8706 13.1691 74.8201 13.4973 75.7184 14.1456L75.8425 14.2354V11.3885L75.8025 11.366C75.4644 11.1778 75.0034 11.0224 74.4309 10.9045C73.8611 10.7869 73.3037 10.7275 72.774 10.7275ZM63.9332 11.0297H60.9687V23.567H63.9332V11.0297ZM62.4812 5.68868C61.9933 5.68868 61.5678 5.85389 61.2182 6.18132C60.8671 6.50975 60.6889 6.92318 60.6889 7.41102C60.6889 7.89126 60.865 8.29708 61.2125 8.61675C61.558 8.93542 61.9848 9.09698 62.4812 9.09698C62.9774 9.09698 63.4059 8.93542 63.7555 8.61724C64.1074 8.29708 64.2858 7.89126 64.2858 7.41102C64.2858 6.94021 64.1122 6.53092 63.77 6.19455C63.4282 5.85885 62.9945 5.68868 62.4812 5.68868ZM55.0847 10.1047V23.5669H58.1101V6.07261H53.923L48.6007 19.0668L43.4358 6.07261H39.0781V23.5669H41.9211V10.1034H42.0189L47.4728 23.5669H49.6183L54.9871 10.1047H55.0847Z" fill="#747474"/>
<path d="M14.883 14.1002H0.9375V0.226562H14.883V14.1002Z" fill="#F1511B"/>
<path d="M30.2813 14.1002H16.3359V0.226562H30.2813V14.1002Z" fill="#80CC28"/>
<path d="M14.8827 29.4244H0.9375V15.5508H14.8827V29.4244Z" fill="#00ADEF"/>
<path d="M30.2813 29.4244H16.3359V15.5508H30.2813V29.4244Z" fill="#FBBC09"/>
</g>
<defs>
<clipPath id="clip0_1821_23172">
<rect width="137.47" height="29.3823" fill="white" transform="translate(0.9375 0.226562)"/>
</clipPath>
</defs>
</svg>
