<svg width="101" height="28" viewBox="0 0 101 28" fill="none" xmlns="http://www.w3.org/2000/svg">
<g clip-path="url(#clip0_1821_23219)">
<path d="M67.4721 0.441406V20.0123C69.886 20.1246 72.2938 20.2604 74.6947 20.4206V24.5698C70.8993 24.3168 67.0879 24.1237 63.2607 23.992V0.441406H67.4721ZM100.938 0.443725L95.4537 13.1574L100.936 27.3054L100.93 27.3081C99.333 27.0803 97.734 26.8652 96.1301 26.659L93.0514 18.7183L89.9433 25.9218C88.4704 25.7592 86.9955 25.6053 85.5171 25.4611L90.8632 13.0724L85.9672 0.443725H90.5229L93.2641 7.51089L96.3122 0.443725H100.938ZM48.8073 23.7864L48.8071 0.44365H60.563V4.63022H53.0185V10.0562H58.7269V14.2055H53.0185V23.7854L48.8073 23.7864ZM33.0821 4.63056L33.0819 0.443432H46.1075V4.63027H41.7003V23.9C40.2946 23.9367 38.8904 23.9804 37.4892 24.0332V4.63056H33.0821ZM18.6852 25.2395V0.444134H30.3824V4.6307H22.8959V10.3018C24.6159 10.2797 27.0613 10.2548 28.5828 10.2585V14.4081C26.6783 14.3844 24.5286 14.4342 22.8959 14.4505V20.7324C25.3841 20.5367 27.8799 20.3654 30.3824 20.2209V24.3706C26.4656 24.5962 22.5664 24.8868 18.6852 25.2395ZM10.424 15.6473L10.4238 0.443452H14.6351V25.6306C13.0956 25.789 11.559 25.9575 10.0251 26.1354L5.14861 12.1259V26.7355C3.74214 26.9187 2.33852 27.1096 0.9375 27.309V0.443725H4.93968L10.424 15.6473ZM78.169 24.8201V0.443752H82.3804V25.1679C80.9784 25.0431 79.5751 24.9277 78.169 24.8201Z" fill="#DB202C"/>
</g>
<defs>
<clipPath id="clip0_1821_23219">
<rect width="100" height="26.9531" fill="white" transform="translate(0.9375 0.441406)"/>
</clipPath>
</defs>
</svg>
