<svg width="101" height="32" viewBox="0 0 101 32" fill="none" xmlns="http://www.w3.org/2000/svg">
<g clip-path="url(#clip0_1821_23251)">
<path d="M16.4951 0.292969C7.90308 0.292969 0.9375 7.25836 0.9375 15.8504C0.9375 24.4429 7.90308 31.4077 16.4951 31.4077C25.0881 31.4077 32.053 24.4429 32.053 15.8504C32.053 7.25892 25.0881 0.293712 16.495 0.293712L16.4951 0.292969ZM23.6298 22.7313C23.3511 23.1883 22.7529 23.3332 22.2959 23.0527C18.6431 20.8215 14.0447 20.3162 8.62928 21.5535C8.10743 21.6724 7.58725 21.3454 7.46836 20.8233C7.3489 20.3013 7.67457 19.7811 8.19772 19.6622C14.1241 18.3083 19.2075 18.8912 23.3084 21.3974C23.7654 21.6779 23.9103 22.2743 23.6298 22.7313ZM25.534 18.4952C25.1829 19.0659 24.4361 19.2461 23.8657 18.895C19.6838 16.3245 13.3092 15.5801 8.36288 17.0816C7.72139 17.2753 7.04385 16.9138 6.84916 16.2734C6.65595 15.632 7.01766 14.9557 7.65803 14.7607C13.3081 13.0463 20.3322 13.8767 25.1346 16.8278C25.7049 17.1789 25.8851 17.9256 25.534 18.4952ZM25.6975 14.084C20.6833 11.1058 12.4106 10.832 7.62329 12.285C6.85454 12.5181 6.04158 12.0841 5.80861 11.3154C5.57564 10.5463 6.00925 9.73386 6.77856 9.50015C12.2741 7.83186 21.4097 8.15418 27.1826 11.5812C27.8756 11.9916 28.1022 12.8847 27.6916 13.5752C27.2829 14.2667 26.3875 14.4946 25.6982 14.084H25.6975ZM43.2647 14.6548C40.5783 14.0142 40.1009 13.5646 40.1009 12.6199C40.1009 11.7274 40.9406 11.1268 42.1909 11.1268C43.4022 11.1268 44.6023 11.5829 45.8619 12.5218C45.899 12.5503 45.9473 12.5616 45.9938 12.5542C46.0421 12.5471 46.083 12.5213 46.1108 12.4824L47.4224 10.6336C47.4763 10.5574 47.4614 10.4524 47.389 10.3943C45.8898 9.19176 44.2029 8.60711 42.2299 8.60711C39.3299 8.60711 37.3031 10.3477 37.3031 12.838C37.3031 15.5086 39.0512 16.4542 42.072 17.1841C44.6413 17.7762 45.076 18.2722 45.076 19.1588C45.076 20.1415 44.1992 20.7527 42.7873 20.7527C41.2193 20.7527 39.9393 20.2233 38.5088 18.986C38.4735 18.9544 38.4252 18.9414 38.3806 18.9433C38.3323 18.947 38.2896 18.9693 38.2598 19.0046L36.7885 20.7546C36.7272 20.8289 36.7346 20.9367 36.8052 20.9998C38.4698 22.4861 40.517 23.27 42.7278 23.27C45.8526 23.27 47.872 21.5627 47.872 18.9191C47.8776 16.6885 46.5418 15.453 43.2703 14.6572L43.2647 14.6548ZM54.9427 12.0056C53.5884 12.0056 52.4775 12.5391 51.5597 13.6324V12.4018C51.5597 12.3047 51.4817 12.2255 51.3851 12.2255H48.9792C48.8826 12.2255 48.8046 12.3047 48.8046 12.4018V26.0753C48.8046 26.1719 48.8826 26.2518 48.9792 26.2518H51.3851C51.4817 26.2518 51.5597 26.1719 51.5597 26.0753V21.7597C52.4775 22.787 53.5884 23.2905 54.9427 23.2905C57.46 23.2905 60.0089 21.3528 60.0089 17.6486C60.0126 13.9436 57.4637 12.0054 54.9446 12.0054L54.9427 12.0056ZM57.2111 17.6486C57.2111 19.534 56.05 20.8512 54.3854 20.8512C52.7413 20.8512 51.5003 19.4746 51.5003 17.6486C51.5003 15.8224 52.7413 14.4461 54.3854 14.4461C56.0221 14.4459 57.2111 15.7926 57.2111 17.6486ZM66.539 12.0056C63.2972 12.0056 60.7576 14.5017 60.7576 17.6889C60.7576 20.8419 63.2805 23.3109 66.5 23.3109C69.753 23.3109 72.3 20.8233 72.3 17.6486C72.3 14.4846 69.7697 12.0059 66.539 12.0059V12.0056ZM66.539 20.8698C64.815 20.8698 63.5145 19.4839 63.5145 17.6476C63.5145 15.8031 64.7704 14.4645 66.5 14.4645C68.2352 14.4645 69.5431 15.8499 69.5431 17.688C69.5431 19.5322 68.2798 20.8698 66.539 20.8698ZM79.2221 12.2255H76.5748V9.51947C76.5748 9.42249 76.4967 9.34335 76.4001 9.34335H73.9943C73.8977 9.34335 73.8178 9.42249 73.8178 9.51947V12.2255H72.6623C72.5657 12.2255 72.4876 12.3047 72.4876 12.4018V14.469C72.4876 14.566 72.5657 14.6453 72.6623 14.6453H73.8178V19.9948C73.8178 22.1554 74.8935 23.2515 77.0169 23.2515C77.8789 23.2515 78.5942 23.0731 79.2686 22.6904C79.3243 22.6607 79.3577 22.6012 79.3577 22.5381V20.5688C79.3577 20.5094 79.3262 20.4518 79.2741 20.4202C79.2221 20.3868 79.1571 20.3849 79.1032 20.4128C78.6406 20.645 78.1929 20.7527 77.6913 20.7527C76.9203 20.7527 76.5748 20.4016 76.5748 19.6176V14.6462H79.2221C79.3187 14.6462 79.3968 14.5671 79.3968 14.4699V12.4029C79.4005 12.3058 79.3224 12.2266 79.224 12.2266L79.2221 12.2255ZM88.4442 12.2361V11.9037C88.4442 10.926 88.8194 10.49 89.6591 10.49C90.1608 10.49 90.5639 10.5896 91.0153 10.74C91.0711 10.7575 91.1287 10.7488 91.1732 10.7155C91.2197 10.6823 91.2457 10.6289 91.2457 10.5725V8.54562C91.2457 8.46815 91.1974 8.3996 91.1212 8.37675C90.6456 8.235 90.0363 8.08953 89.1223 8.08953C86.9022 8.08953 85.7262 9.34056 85.7262 11.7061V12.2151H84.5707C84.4741 12.2151 84.3942 12.2943 84.3942 12.3912V14.469C84.3942 14.566 84.4741 14.6453 84.5707 14.6453H85.7262V22.8948C85.7262 22.9932 85.8061 23.0713 85.9027 23.0713H88.3067C88.4052 23.0713 88.4832 22.9932 88.4832 22.8948V14.6458H90.7292L94.1699 22.8948C93.7797 23.7605 93.3952 23.9333 92.8713 23.9333C92.4477 23.9333 92 23.8069 91.5448 23.5561C91.5021 23.5339 91.4501 23.5301 91.4055 23.5431C91.359 23.5599 91.32 23.5933 91.3014 23.6379L90.4859 25.4269C90.4469 25.5124 90.4803 25.6109 90.562 25.6554C91.4129 26.1162 92.1802 26.3131 93.1295 26.3131C94.9055 26.3131 95.8883 25.4845 96.7522 23.2589L100.925 12.4769C100.947 12.4226 100.94 12.3613 100.906 12.3132C100.875 12.2655 100.821 12.2367 100.763 12.2367H98.2588C98.1827 12.2367 98.1158 12.2844 98.0916 12.3548L95.526 19.6808L92.7171 12.35C92.6911 12.2818 92.626 12.2367 92.5536 12.2367H88.4442V12.2361ZM83.0975 12.2255H80.6916C80.595 12.2255 80.5151 12.3047 80.5151 12.4018V22.8948C80.5151 22.9932 80.595 23.0713 80.6916 23.0713H83.0975C83.1941 23.0713 83.2739 22.9932 83.2739 22.8948V12.4026C83.2739 12.3054 83.1959 12.2263 83.0975 12.2263V12.2255ZM81.9085 7.44748C80.9554 7.44748 80.1826 8.21883 80.1826 9.17169C80.1826 10.1251 80.9554 10.8974 81.9085 10.8974C82.8615 10.8974 83.6325 10.1251 83.6325 9.17169C83.6325 8.21902 82.8597 7.44748 81.9085 7.44748Z" fill="#1ED760"/>
</g>
<defs>
<clipPath id="clip0_1821_23251">
<rect width="100" height="31.25" fill="white" transform="translate(0.9375 0.292969)"/>
</clipPath>
</defs>
</svg>
