<svg width="101" height="51" viewBox="0 0 101 51" fill="none" xmlns="http://www.w3.org/2000/svg">
<path d="M85.8832 28.3837V33.3962H87.4906V30.0564H93.3411V33.3962H94.9474V28.3924L85.8832 28.3837ZM87.3117 26.7623H93.4927C94.3512 26.5916 94.9897 25.834 95.1695 25.1011H85.635C85.8134 25.8342 86.4585 26.5916 87.3117 26.7623ZM81.0152 33.3994C81.8257 33.0558 82.2619 32.4615 82.4289 31.7661H75.2186L75.2231 25.1052L73.607 25.1098V33.3994H81.0148M61.5888 26.7399H67.2972C68.1578 26.4898 68.8802 25.834 69.0586 25.1075H59.9907V30.0063H67.4125V31.7254L61.5907 31.73C60.6784 31.9843 59.9047 32.5992 59.5188 33.406L59.9905 33.3974H69.0069V28.3775H61.5907V26.7396M47.497 26.7557H53.6734C54.5331 26.5841 55.1718 25.8274 55.3511 25.0938H45.8189C45.9968 25.8274 46.6451 26.5843 47.4965 26.7557M47.4968 30.0319H53.6732C54.5328 29.8626 55.1715 29.1048 55.3509 28.3707H45.8189C45.9968 29.1027 46.6453 29.8622 47.4968 30.0319ZM47.4968 33.3985H53.6732C54.5328 33.2276 55.1715 32.4702 55.3509 31.737H45.8189C45.9968 32.4704 46.6453 33.2276 47.4968 33.3985ZM31.4219 25.1139C31.6076 25.8383 32.2349 26.5788 33.0955 26.7643H35.6941L35.8268 26.817V33.3823H37.451V26.817L37.5985 26.7643H40.2018C41.0719 26.5402 41.6857 25.8383 41.8682 25.1139V25.0979H31.4219V25.1139Z" fill="#E82127"/>
<path d="M20.3381 39.5004L24.1531 18.0463C27.789 18.0463 28.9365 18.4446 29.1015 20.0713C29.1015 20.0713 31.5406 19.1546 32.7706 17.3146C27.9706 15.0896 23.1456 14.9813 23.1456 14.9813L20.3306 18.4096H20.3373L17.5223 14.9813C17.5223 14.9813 12.689 15.0813 7.89729 17.3146C9.12646 19.1621 11.5665 20.0713 11.5665 20.0713C11.7331 18.4438 12.8781 18.0446 16.4831 18.0421L20.3365 39.5004M20.3356 14.0004C24.2165 13.9704 28.6581 14.6004 33.2056 16.5838C33.814 15.4896 33.9698 15.0063 33.9698 15.0063C28.999 13.0396 24.3448 12.3663 20.3365 12.3496C16.3365 12.3663 11.6731 13.0396 6.70312 15.0063C6.70312 15.0063 6.92479 15.6021 7.46646 16.5838C12.0131 14.6021 16.4556 13.9721 20.3365 14.0004" fill="#E82127"/>
</svg>
